<svg width="69" height="50" viewBox="0 0 69 50" fill="none" xmlns="http://www.w3.org/2000/svg">
<path d="M42.902 18.8517V16.2969H40.3472C40.8519 16.6521 41.3255 17.0446 41.7617 17.4808C42.1791 17.9045 42.5655 18.3656 42.902 18.8517Z" fill="white"/>
<path d="M26.0654 30.6104V33.134H28.5766C28.0968 32.7975 27.6482 32.4236 27.2307 32.0124C26.8007 31.5824 26.4144 31.1151 26.0654 30.6166V30.6104Z" fill="white"/>
<path d="M34.4776 18.565V16.2969H26.0654V20.5715L28.9505 22.0109C29.9537 19.9733 32.0474 18.565 34.4713 18.565H34.4776Z" fill="white"/>
<path d="M59.5703 16.073C59.5703 16.1976 59.67 16.2973 59.7946 16.2973H62.4616V33.134H59.7946C59.67 33.134 59.5703 33.2337 59.5703 33.3584C59.5703 33.483 59.67 33.5827 59.7946 33.5827H62.9102V15.8486H59.7946C59.67 15.8486 59.5703 15.9483 59.5703 16.073Z" fill="white"/>
<path d="M8.4246 33.134H5.75764V16.2973H8.4246C8.54923 16.2973 8.64893 16.1976 8.64893 16.073C8.64893 15.9483 8.54923 15.8486 8.4246 15.8486H5.309V24.6845H2.29932C2.28686 24.0614 1.7759 23.5566 1.15277 23.5566C0.529653 23.5566 0 24.0738 0 24.7094C0 25.345 0.517191 25.8622 1.15277 25.8622C1.71982 25.8622 2.18716 25.4509 2.28062 24.9088H5.309V33.5827H8.4246C8.54923 33.5827 8.64893 33.483 8.64893 33.3584C8.64893 33.2337 8.54923 33.134 8.4246 33.134Z" fill="white"/>
<path d="M47.5381 25.8747C47.1393 25.7313 46.8464 25.3762 46.7903 24.94C46.7903 24.8901 46.7779 24.8465 46.7779 24.7967C46.7779 24.6907 46.7966 24.591 46.8215 24.4913C46.9212 24.1237 47.1954 23.8371 47.5505 23.7124C47.6191 23.6875 47.6939 23.6688 47.7686 23.6564C47.2265 16.7958 41.4813 11.3809 34.4837 11.3809C27.486 11.3809 21.7408 16.7958 21.1987 23.6501C21.2735 23.6564 21.3483 23.675 21.4168 23.6937C21.7845 23.8121 22.0711 24.105 22.1708 24.4789C22.1957 24.5786 22.2144 24.6783 22.2144 24.7842C22.2144 24.8341 22.2082 24.8839 22.202 24.9275C22.1459 25.3699 21.8405 25.7313 21.4231 25.8684C21.3545 25.8934 21.2797 25.9058 21.205 25.9183C21.8219 32.6979 27.5359 38.0318 34.4775 38.0318C41.419 38.0318 47.1331 32.6978 47.7499 25.9121C47.6752 25.8996 47.6004 25.8809 47.5318 25.856L47.5381 25.8747ZM25.2677 20.1731L25.6229 20.3476V15.8486H34.4775V14.4466C35.9231 14.4466 37.294 14.7457 38.5464 15.2816C38.9265 15.4436 39.288 15.6368 39.6431 15.8424H43.3569V19.5438C44.2106 21.0019 44.7091 22.6843 44.7527 24.4851H39.2194L34.4899 19.7556L29.7043 24.5412L26.0715 24.5163H25.6229L24.2146 24.5038C24.2583 22.9709 24.6259 21.463 25.2677 20.1669V20.1731ZM35.6988 24.7219C35.6988 25.3949 35.1567 25.937 34.4837 25.937C33.8107 25.937 33.2686 25.3949 33.2686 24.7219C33.2686 24.0489 33.8107 23.5068 34.4837 23.5068C35.1567 23.5068 35.6988 24.0489 35.6988 24.7219ZM36.783 37.6205L36.2845 34.8414C37.4996 34.6233 38.6399 34.1871 39.6743 33.5827H34.4775V35.0034C32.5769 35.0034 30.7948 34.4862 29.2682 33.5827H25.6167V29.9063C25.3674 29.4825 25.1369 29.0464 24.9499 28.5852L25.6167 28.3173V24.9338H26.0653V28.1366L28.7697 27.0524C28.5017 26.3981 28.3459 25.6815 28.321 24.94H29.748L34.4775 29.6695L39.2069 24.94H40.6152C40.5591 26.5663 39.8799 28.0307 38.8019 29.1024C37.9295 29.9623 36.8079 30.5668 35.5492 30.7849C35.2003 30.8472 34.8389 30.8846 34.465 30.8846V33.134H40.3597C40.8395 32.7976 41.2944 32.4237 41.7119 32.0124L42.8335 33.134H42.8896V24.94H43.3382V33.5827H43.2822L43.7121 34.0126C41.8614 35.8571 39.4562 37.1407 36.7768 37.6205H36.783Z" fill="white"/>
<path d="M67.727 23.5566C67.0976 23.5566 66.5929 24.0614 66.5804 24.6845H63.3526C63.2903 24.6845 63.2405 24.7343 63.2405 24.7967C63.2405 24.859 63.2903 24.9088 63.3526 24.9088H66.5991C66.6926 25.4509 67.1599 25.8622 67.727 25.8622C68.3625 25.8622 68.8797 25.345 68.8797 24.7094C68.8797 24.0738 68.3625 23.5566 67.727 23.5566Z" fill="white"/>
<path d="M34.1719 24.7159C34.1719 24.8841 34.309 25.0274 34.4834 25.0274C34.6579 25.0274 34.795 24.8903 34.795 24.7159C34.795 24.5414 34.6579 24.4043 34.4834 24.4043C34.309 24.4043 34.1719 24.5414 34.1719 24.7159Z" fill="white"/>
<path d="M34.0851 0.226562C22.7505 0.226562 12.9612 7.90965 10.2881 18.9077C10.232 19.1508 10.3753 19.3876 10.6183 19.4499C10.8613 19.5122 11.0981 19.3626 11.1604 19.1196C13.7401 8.52654 23.168 1.12386 34.0851 1.12386C47.0211 1.12386 57.5518 11.5861 57.6702 24.4909H51.7256C51.6509 18.4965 48.4979 13.2311 43.7808 10.1965L46.3668 6.2833L44.46 5.18038L42.3975 9.39268C41.5376 8.94403 40.6341 8.56393 39.6994 8.27106L41.1887 3.82197L39.0638 3.2487L38.1603 7.8598C37.2194 7.65417 36.2535 7.52332 35.2628 7.4797L35.5494 2.78136H33.3436L33.6676 7.4797C32.6768 7.52332 31.711 7.65417 30.7763 7.8598L29.8354 3.23624L27.7105 3.80951L29.2434 8.27729C28.3087 8.57639 27.4114 8.9565 26.5515 9.39891L24.4391 5.16169L22.5324 6.26461L25.1807 10.1965C24.3581 10.7262 23.5855 11.3119 22.8689 11.9662L19.7221 8.40815L18.1643 9.96595L21.7473 13.0878C21.093 13.8044 20.501 14.5771 19.9714 15.3996L16.0021 12.77L14.8992 14.6768L19.1738 16.7704C18.7251 17.6303 18.3512 18.5276 18.0521 19.4561L13.5407 17.9481L12.9675 20.073L17.6347 20.989C17.3854 22.1231 17.2483 23.2945 17.2296 24.4972H12.9986C12.8491 23.3693 11.8957 22.4969 10.7305 22.4969C9.4593 22.4969 8.43115 23.5251 8.43115 24.7962C8.43115 26.0674 9.4593 27.0956 10.7305 27.0956C12.0016 27.0956 12.9363 26.1422 13.0173 24.9396H17.2296C17.2421 26.111 17.3729 27.2513 17.6097 28.348L12.9488 29.2952L13.5158 31.42L18.0148 29.8809C18.3076 30.8156 18.6815 31.7129 19.1239 32.5728L14.8618 34.6977L15.9647 36.6044L19.9091 33.9499C20.4325 34.7724 21.0182 35.5513 21.6725 36.2679L18.1145 39.4209L19.6723 40.9787L22.7941 37.3958C23.5107 38.0563 24.2771 38.6482 25.0997 39.1841L22.4825 43.1409L24.3893 44.2439L26.4705 39.988C27.3242 40.4366 28.2277 40.8229 29.1562 41.122L27.6545 45.6023L29.7855 46.1755L30.6891 41.5458C31.63 41.7576 32.5896 41.8947 33.5803 41.9446L33.2937 46.6491H35.4996L35.1755 41.9508C36.1663 41.9134 37.1321 41.7888 38.073 41.5894L39.0077 46.1942L41.1326 45.621L39.6122 41.1843C40.5531 40.8915 41.4504 40.5176 42.3165 40.0752L44.4102 44.275L46.3169 43.1721L43.6998 39.2838C44.5286 38.7604 45.3075 38.1684 46.0303 37.5142L49.1335 41.0223L50.6913 39.4645L47.1644 36.3925C47.8249 35.676 48.4231 34.9033 48.9528 34.0808L52.8535 36.6605L53.9564 34.7537L49.7628 32.7037C50.2115 31.8438 50.5978 30.9402 50.8969 30.0055L55.3211 31.4823L55.8943 29.3513L51.3206 28.454C51.5761 27.3199 51.7132 26.136 51.7319 24.9271H57.6765C57.5581 37.832 47.0211 48.2942 34.0913 48.2942C23.1929 48.2942 13.7713 40.9102 11.1791 30.342C11.123 30.099 10.88 29.9557 10.637 30.0118C10.394 30.0679 10.2507 30.3109 10.3067 30.5539C12.9986 41.5271 22.7754 49.1915 34.0913 49.1915C47.5943 49.1915 58.58 38.2058 58.58 24.7028C58.58 11.1997 47.5881 0.226562 34.0851 0.226562ZM50.4358 28.292L50.0494 29.7251C49.7628 30.6287 49.3952 31.4886 48.959 32.3173L48.2736 33.5013C47.7065 34.3923 47.0522 35.2273 46.3232 35.9937L45.7437 36.5732C42.8088 39.3648 38.8395 41.0784 34.4714 41.0784C25.5109 41.0784 18.2329 33.8751 18.1145 24.9396H19.3171H19.4978H19.934C19.934 24.8897 19.9215 24.8461 19.9215 24.7962C19.9215 24.6903 19.9402 24.5906 19.9651 24.4909H18.1145C18.2329 15.5554 25.5109 8.35207 34.4714 8.35207C43.4319 8.35207 50.71 15.5554 50.8283 24.4909H49.0275C49.0525 24.5906 49.0711 24.6903 49.0711 24.7962C49.0711 24.8461 49.0649 24.8959 49.0587 24.9396H50.8283C50.8159 26.0923 50.6788 27.2077 50.4358 28.292Z" fill="white"/>
<path d="M25.7284 36.9414C25.6536 37.0474 25.6848 37.1845 25.7845 37.253C25.8219 37.2842 25.8655 37.2904 25.9091 37.2904C25.9777 37.2904 26.0462 37.2592 26.0898 37.1969C26.1646 37.091 26.1334 36.9539 26.0337 36.8854C25.934 36.8168 25.7907 36.8417 25.7222 36.9414H25.7284Z" fill="white"/>
<path d="M29.1932 38.5364C29.081 38.4928 28.9502 38.5551 28.9066 38.6735C28.863 38.7857 28.919 38.9165 29.0374 38.9601C29.0624 38.9664 29.0935 38.9726 29.1184 38.9726C29.2057 38.9726 29.2929 38.9165 29.3303 38.8293C29.3739 38.7109 29.3116 38.58 29.1932 38.5364Z" fill="white"/>
<path d="M23.0554 34.5111C22.9619 34.5921 22.9495 34.7354 23.0367 34.8226C23.0803 34.8725 23.1426 34.8974 23.2049 34.8974C23.261 34.8974 23.3109 34.8787 23.3545 34.8413C23.448 34.7603 23.4604 34.617 23.3794 34.5298C23.2922 34.4363 23.1551 34.4238 23.0616 34.5111H23.0554Z" fill="white"/>
<path d="M19.8029 28.1116C19.6845 28.1365 19.6035 28.2611 19.6346 28.3795C19.6596 28.4855 19.753 28.5478 19.8527 28.5478C19.8714 28.5478 19.8901 28.5478 19.9088 28.5478C20.0272 28.5166 20.102 28.3982 20.0708 28.2736C20.0459 28.1552 19.9213 28.0804 19.8029 28.1116Z" fill="white"/>
<path d="M20.0521 21.2011C20.0771 21.0827 20.0085 20.9581 19.8839 20.927C19.7655 20.902 19.6409 20.9706 19.6159 21.0952C19.5848 21.2136 19.6596 21.3382 19.7842 21.3631C19.8029 21.3631 19.8153 21.3694 19.834 21.3694C19.94 21.3694 20.0272 21.2946 20.0521 21.2011Z" fill="white"/>
<path d="M32.6581 39.384C32.5335 39.3715 32.4276 39.4588 32.4089 39.5834C32.3964 39.7018 32.4837 39.814 32.6083 39.8326H32.6332C32.7454 39.8326 32.8389 39.7454 32.8575 39.6332C32.87 39.5086 32.7828 39.4027 32.6581 39.384Z" fill="white"/>
<path d="M21.0367 31.5078C20.9246 31.5639 20.8872 31.701 20.9432 31.8131C20.9806 31.8879 21.0616 31.9315 21.1426 31.9315C21.18 31.9315 21.2174 31.9253 21.2486 31.9066C21.3607 31.8505 21.3981 31.7134 21.342 31.6075C21.286 31.4954 21.1489 31.458 21.0429 31.514L21.0367 31.5078Z" fill="white"/>
<path d="M45.4879 34.505C45.4069 34.5984 45.4132 34.7355 45.5129 34.8228C45.5502 34.8602 45.6063 34.8788 45.6624 34.8788C45.7185 34.8788 45.7808 34.8539 45.8307 34.8041C45.9117 34.7168 45.8992 34.5735 45.812 34.4925C45.7185 34.4053 45.5814 34.4177 45.4942 34.5112L45.4879 34.505Z" fill="white"/>
<path d="M47.8184 31.4828C47.7063 31.4267 47.5692 31.4641 47.5131 31.5763C47.457 31.6822 47.5006 31.8255 47.6066 31.8754C47.6439 31.8941 47.6751 31.9003 47.7125 31.9003C47.7935 31.9003 47.8745 31.8567 47.9119 31.7819C47.968 31.676 47.9243 31.5389 47.8184 31.4828Z" fill="white"/>
<path d="M48.7781 28.2427C48.7469 28.3611 48.8217 28.4795 48.9463 28.5106C48.965 28.5106 48.9837 28.5106 49.0024 28.5106C49.1021 28.5106 49.1893 28.4421 49.2205 28.3424C49.2516 28.224 49.1769 28.0994 49.0522 28.0744C48.9338 28.0433 48.8154 28.1181 48.7843 28.2427H48.7781Z" fill="white"/>
<path d="M39.6803 38.5294C39.5619 38.573 39.5058 38.7039 39.5494 38.816C39.5806 38.9033 39.6678 38.9656 39.755 38.9656C39.78 38.9656 39.8111 38.9656 39.836 38.9469C39.9544 38.9095 40.0105 38.7786 39.9669 38.6602C39.9233 38.5418 39.7924 38.4858 39.6803 38.5294Z" fill="white"/>
<path d="M36.2157 39.3771C36.0911 39.3958 36.0039 39.5079 36.0163 39.6263C36.0288 39.7385 36.1285 39.8257 36.2406 39.8257H36.2656C36.384 39.807 36.4774 39.6949 36.4587 39.5765C36.4463 39.4581 36.3341 39.3646 36.2095 39.3771H36.2157Z" fill="white"/>
<path d="M42.8272 36.873C42.7213 36.9416 42.6964 37.0787 42.7711 37.1846C42.8147 37.2469 42.8833 37.2843 42.9518 37.2843C42.9955 37.2843 43.0391 37.2718 43.0827 37.2469C43.1824 37.1721 43.2073 37.035 43.1388 36.9353C43.064 36.8294 42.9269 36.8107 42.8272 36.8793V36.873Z" fill="white"/>
<path d="M29.0564 10.9067C29.0564 10.9067 29.1125 10.9067 29.1374 10.8942C29.2496 10.8506 29.3057 10.7197 29.2621 10.6013C29.2247 10.4892 29.0938 10.4331 28.9754 10.4767C28.857 10.5141 28.8009 10.645 28.8446 10.7634C28.882 10.8506 28.963 10.9067 29.0564 10.9067Z" fill="white"/>
<path d="M42.9022 12.5464C42.9707 12.5464 43.0455 12.509 43.0829 12.4467C43.1576 12.347 43.1265 12.2037 43.0268 12.1352C42.9271 12.0604 42.79 12.0915 42.7152 12.1912C42.6405 12.2972 42.6716 12.428 42.7713 12.5028C42.8087 12.5277 42.8523 12.5464 42.8959 12.5464H42.9022Z" fill="white"/>
<path d="M39.6182 10.8642C39.6182 10.8642 39.6743 10.8767 39.693 10.8767C39.7865 10.8767 39.8737 10.8206 39.9049 10.7271C39.9485 10.615 39.8924 10.4841 39.774 10.4405C39.6556 10.3969 39.5248 10.453 39.4874 10.5714C39.4438 10.6898 39.4999 10.8206 39.6182 10.8642Z" fill="white"/>
<path d="M45.6186 14.939C45.6747 14.939 45.7246 14.9203 45.7682 14.883C45.8617 14.7957 45.8679 14.6586 45.7869 14.5652C45.7059 14.4779 45.5626 14.4655 45.4753 14.5465C45.3819 14.6337 45.3694 14.7708 45.4566 14.8643C45.494 14.9141 45.5626 14.939 45.6249 14.939H45.6186Z" fill="white"/>
<path d="M48.9772 21.2822C48.9772 21.2822 49.0146 21.2822 49.0333 21.2759C49.1517 21.251 49.2265 21.1264 49.2016 21.008C49.1704 20.8896 49.052 20.8148 48.9274 20.8398C48.809 20.8709 48.7342 20.9893 48.7654 21.1139C48.7903 21.2199 48.8838 21.2822 48.9835 21.2822H48.9772Z" fill="white"/>
<path d="M21.0114 17.9614C21.0426 17.9801 21.08 17.9864 21.1174 17.9864C21.1984 17.9864 21.2731 17.9428 21.3168 17.868C21.3728 17.7558 21.3355 17.6187 21.2233 17.5627C21.1174 17.5066 20.9741 17.5502 20.9242 17.6561C20.8681 17.7683 20.9055 17.9054 21.0177 17.9614H21.0114Z" fill="white"/>
<path d="M47.6877 17.9052C47.7251 17.9052 47.7625 17.8989 47.7936 17.8802C47.9058 17.8242 47.9432 17.6871 47.8871 17.5811C47.831 17.469 47.6939 17.4316 47.588 17.4877C47.4758 17.5438 47.4384 17.6808 47.4945 17.793C47.5319 17.8678 47.6129 17.9114 47.6939 17.9114L47.6877 17.9052Z" fill="white"/>
<path d="M25.8594 12.602C25.903 12.602 25.9466 12.5896 25.984 12.5584C26.09 12.4899 26.1149 12.3466 26.0401 12.2469C25.9653 12.1409 25.8282 12.1222 25.7285 12.1908C25.6288 12.2593 25.6039 12.4026 25.6725 12.5023C25.7099 12.5647 25.7846 12.602 25.8532 12.602H25.8594Z" fill="white"/>
<path d="M36.1537 10.0222C36.1537 10.0222 36.1724 10.0222 36.1786 10.0222C36.2908 10.0222 36.3842 9.93494 36.3967 9.82277C36.4154 9.69815 36.3281 9.58599 36.1973 9.57353C36.0789 9.56106 35.9667 9.64207 35.948 9.77292C35.9356 9.89132 36.0166 10.0035 36.1474 10.0222H36.1537Z" fill="white"/>
<path d="M23.1614 15.0017C23.2237 15.0017 23.286 14.9768 23.3297 14.9269C23.4107 14.8335 23.4044 14.6902 23.311 14.6091C23.2175 14.5281 23.0742 14.5344 22.9932 14.6278C22.9122 14.7213 22.9184 14.8646 23.0119 14.9456C23.0555 14.983 23.1116 15.0017 23.1614 15.0017Z" fill="white"/>
<path d="M32.5647 10.0347H32.5897C32.7081 10.0222 32.8015 9.91003 32.7828 9.7854C32.7704 9.66701 32.6582 9.57354 32.5336 9.59223C32.409 9.6047 32.3217 9.71686 32.3342 9.84148C32.3467 9.95988 32.4464 10.0409 32.5585 10.0409L32.5647 10.0347Z" fill="white"/>
</svg>
