<svg width="53" height="54" viewBox="0 0 53 54" fill="none" xmlns="http://www.w3.org/2000/svg">
<path d="M27.2988 32.3669C27.2988 31.9307 26.9436 31.5693 26.5012 31.5693C26.0588 31.5693 25.7036 31.9245 25.7036 32.3669C25.7036 32.8093 26.0588 33.1645 26.5012 33.1645C26.9436 33.1645 27.2988 32.8093 27.2988 32.3669Z" fill="white"/>
<path d="M26.5013 22.6962C28.5015 22.6962 30.1528 24.2042 30.3895 26.1421H33.985C33.7357 22.2164 30.4892 19.1133 26.5013 19.1133C22.5133 19.1133 19.2668 22.2227 19.0176 26.1421H22.613C22.8498 24.2042 24.501 22.6962 26.5013 22.6962ZM30.9067 21.5123C31.1186 21.5123 31.2868 21.6868 31.2868 21.8924C31.2868 22.098 31.1186 22.2725 30.9067 22.2725C30.6949 22.2725 30.5266 22.1043 30.5266 21.8924C30.5266 21.6805 30.7011 21.5123 30.9067 21.5123ZM29.9409 22.6713C30.0468 22.6713 30.1341 22.7585 30.1341 22.8645C30.1341 22.9704 30.0468 23.0576 29.9409 23.0576C29.835 23.0576 29.7477 22.9704 29.7477 22.8645C29.7477 22.7585 29.835 22.6713 29.9409 22.6713ZM26.5075 19.3999C27.3051 19.3999 27.9531 20.048 27.9531 20.8456C27.9531 21.6432 27.3051 22.2912 26.5075 22.2912C25.7099 22.2912 25.0619 21.6432 25.0619 20.8456C25.0619 20.048 25.7099 19.3999 26.5075 19.3999Z" fill="white"/>
<path d="M26.5011 23.1445C24.7564 23.1445 23.3107 24.4531 23.0864 26.1417H23.3107C23.5288 24.5777 24.8748 23.3689 26.4949 23.3689C28.115 23.3689 29.461 24.5777 29.6791 26.1417H29.9034C29.6853 24.4531 28.2396 23.1445 26.4887 23.1445H26.5011Z" fill="white"/>
<path d="M35.1813 2.06447C35.1813 2.06447 35.2311 2.07694 35.2561 2.07694C35.3495 2.07694 35.4368 2.02086 35.4679 1.92739C35.5053 1.80899 35.4492 1.67814 35.3308 1.64075C35.2124 1.60336 35.0816 1.66568 35.0442 1.77784C35.0068 1.89623 35.0629 2.02086 35.1813 2.05824V2.06447Z" fill="white"/>
<path d="M41.101 5.0489C41.1384 5.07382 41.182 5.09251 41.2256 5.09251C41.3004 5.09251 41.3627 5.05513 41.4063 4.99281C41.4811 4.88688 41.4499 4.7498 41.3502 4.68125C41.2443 4.61271 41.1072 4.63763 41.0387 4.73733C40.9701 4.84326 41.0013 4.98035 41.101 5.0489Z" fill="white"/>
<path d="M52.554 25.5304C52.554 25.6488 52.6599 25.7423 52.7783 25.7423H52.7845C52.9091 25.7361 53.0026 25.6301 53.0026 25.5117C52.9964 25.3871 52.8904 25.2874 52.7721 25.2999C52.6474 25.2999 52.554 25.4058 52.5602 25.5304H52.554Z" fill="white"/>
<path d="M37.2441 2.8925C37.2441 2.8925 37.3001 2.91119 37.3313 2.91119C37.4185 2.91119 37.4995 2.86134 37.5369 2.78034C37.5868 2.66194 37.5369 2.53109 37.4248 2.48124C37.3126 2.43139 37.1755 2.48124 37.1257 2.5934C37.0758 2.70556 37.1257 2.84265 37.2441 2.8925Z" fill="white"/>
<path d="M30.9069 0.961337H30.9443C31.0502 0.961337 31.1437 0.886563 31.1624 0.780632C31.1873 0.662239 31.1063 0.543846 30.9817 0.518921C30.8633 0.493996 30.7449 0.581233 30.7262 0.699626C30.7013 0.818019 30.7823 0.936412 30.9069 0.961337Z" fill="white"/>
<path d="M33.0689 1.42239C33.0689 1.42239 33.1063 1.43485 33.125 1.43485C33.2247 1.43485 33.3119 1.36631 33.3431 1.26661C33.3742 1.14822 33.3057 1.02359 33.1811 0.992436C33.0627 0.96128 32.938 1.03606 32.9069 1.15445C32.8757 1.27284 32.9443 1.39747 33.0689 1.42862V1.42239Z" fill="white"/>
<path d="M28.7138 0.681383H28.7325C28.8508 0.681383 28.9443 0.594146 28.9568 0.475753C28.963 0.351129 28.8758 0.245198 28.7511 0.232736C28.6328 0.226505 28.5206 0.313742 28.5081 0.432135C28.5019 0.556759 28.5891 0.66269 28.7138 0.681383Z" fill="white"/>
<path d="M52.3669 23.3253C52.3794 23.4374 52.4791 23.5247 52.5912 23.5247C52.5974 23.5247 52.6099 23.5247 52.6161 23.5247C52.7345 23.5122 52.828 23.4 52.8093 23.2754C52.7968 23.157 52.6847 23.0698 52.5601 23.0822C52.4417 23.0947 52.3482 23.2131 52.3669 23.3315V23.3253Z" fill="white"/>
<path d="M47.4631 11.1433C47.5005 11.1994 47.5691 11.2306 47.6439 11.2306C47.6875 11.2306 47.7311 11.2181 47.7747 11.187C47.8806 11.1122 47.8931 10.9751 47.8246 10.8754C47.7498 10.7695 47.6127 10.7508 47.513 10.8255C47.4133 10.9003 47.3946 11.0436 47.4631 11.1371V11.1433Z" fill="white"/>
<path d="M46.2417 9.49763C46.2916 9.49763 46.3477 9.47894 46.3913 9.44155C46.4785 9.36054 46.491 9.21723 46.41 9.12376C46.329 9.03652 46.1857 9.02406 46.0984 9.10506C46.0049 9.18607 45.9925 9.32939 46.0735 9.42286C46.1171 9.47271 46.1794 9.4914 46.2417 9.4914V9.49763Z" fill="white"/>
<path d="M43.0205 6.41366C43.0891 6.41366 43.1514 6.38874 43.195 6.33266C43.2698 6.23296 43.2573 6.08964 43.1638 6.01487C43.0704 5.94009 42.927 5.95255 42.8523 6.05225C42.7775 6.14572 42.79 6.28904 42.8897 6.36381C42.927 6.39497 42.9769 6.41366 43.0267 6.41366H43.0205Z" fill="white"/>
<path d="M44.6965 7.89024C44.7526 7.89024 44.8149 7.86532 44.8586 7.8217C44.9458 7.73446 44.9396 7.59114 44.8523 7.5039C44.7651 7.41667 44.6218 7.41667 44.5408 7.5039C44.4535 7.59114 44.4535 7.74069 44.5408 7.8217C44.5844 7.85908 44.6405 7.88401 44.6965 7.88401V7.89024Z" fill="white"/>
<path d="M39.2131 3.89036C39.2505 3.90905 39.2879 3.91528 39.3253 3.91528C39.4001 3.91528 39.4748 3.87166 39.5184 3.80312C39.5808 3.69719 39.5434 3.55387 39.4312 3.49779C39.3253 3.43548 39.1882 3.47287 39.1259 3.58503C39.0698 3.69096 39.101 3.82805 39.2131 3.89036Z" fill="white"/>
<path d="M11.7017 5.14149C11.7453 5.14149 11.789 5.12903 11.8263 5.1041C11.9323 5.03556 11.9572 4.89847 11.8824 4.79254C11.8139 4.68661 11.6768 4.66169 11.5709 4.73646C11.4649 4.80501 11.44 4.94209 11.5148 5.04802C11.5522 5.11033 11.6269 5.14772 11.6955 5.14772L11.7017 5.14149Z" fill="white"/>
<path d="M5.30904 11.3111C5.37758 11.3111 5.44612 11.2799 5.48974 11.2176C5.56451 11.1179 5.54583 10.9808 5.44613 10.906C5.34643 10.8313 5.20311 10.85 5.13457 10.9497C5.05979 11.0556 5.07848 11.1927 5.17818 11.2612C5.2218 11.2924 5.26542 11.3048 5.31527 11.3048L5.30904 11.3111Z" fill="white"/>
<path d="M6.70487 9.57337C6.76718 9.57337 6.82949 9.54845 6.87311 9.4986C6.96034 9.40513 6.94788 9.26181 6.85442 9.18081C6.76095 9.0998 6.61763 9.10603 6.53663 9.20573C6.45562 9.29297 6.46808 9.43629 6.56155 9.51729C6.59893 9.55468 6.65502 9.57337 6.7111 9.57337H6.70487Z" fill="white"/>
<path d="M13.5965 3.96476C13.6339 3.96476 13.6713 3.95853 13.7025 3.93984C13.8084 3.87752 13.852 3.74044 13.7897 3.63451C13.7336 3.52858 13.5903 3.48496 13.4844 3.54727C13.3784 3.60335 13.3348 3.74667 13.3971 3.8526C13.4345 3.92737 13.5155 3.96476 13.5965 3.96476Z" fill="white"/>
<path d="M8.24394 7.95823C8.30002 7.95823 8.3561 7.9333 8.39972 7.89592C8.48696 7.80868 8.48696 7.66536 8.39972 7.57812C8.31249 7.49089 8.16917 7.49089 8.08816 7.57812C8.00092 7.66536 7.99469 7.80868 8.08192 7.89592C8.12554 7.93953 8.18786 7.96446 8.24394 7.96446V7.95823Z" fill="white"/>
<path d="M21.9587 0.973894C21.9587 0.973894 21.9836 0.973894 21.9961 0.973894C22.1145 0.9552 22.1955 0.836807 22.1768 0.718414C22.1519 0.59379 22.0397 0.512784 21.9151 0.537709C21.7967 0.562634 21.7157 0.674795 21.7344 0.79942C21.7531 0.905351 21.8465 0.980125 21.9525 0.980125L21.9587 0.973894Z" fill="white"/>
<path d="M26.4018 0.587319C26.4018 0.587319 26.4392 0.587319 26.4517 0.587319C26.4703 0.587319 26.4891 0.587319 26.5077 0.587319C26.6261 0.587319 26.7321 0.48762 26.7321 0.362996C26.7321 0.238371 26.6261 0.138672 26.5077 0.138672C26.4891 0.138672 26.4703 0.138672 26.4517 0.138672C26.4392 0.138672 26.4205 0.138672 26.4018 0.138672C26.2772 0.138672 26.1775 0.244603 26.1775 0.362996C26.1775 0.481389 26.2772 0.587319 26.4018 0.587319Z" fill="white"/>
<path d="M24.1768 0.686265H24.1955C24.3139 0.673802 24.4136 0.567871 24.3949 0.437016C24.3886 0.318623 24.2765 0.218923 24.1519 0.237617C24.0335 0.243848 23.9338 0.35601 23.9525 0.480634C23.9587 0.599028 24.0584 0.686265 24.1768 0.686265Z" fill="white"/>
<path d="M15.5844 2.95469C15.6155 2.95469 15.6467 2.95469 15.6778 2.93599C15.79 2.87991 15.8398 2.75529 15.79 2.63689C15.7339 2.52473 15.6031 2.47488 15.4909 2.53096C15.3787 2.58081 15.3289 2.71167 15.385 2.82383C15.4224 2.90484 15.5034 2.95469 15.5844 2.95469Z" fill="white"/>
<path d="M17.653 2.11368C17.653 2.11368 17.7029 2.11368 17.7278 2.10122C17.8462 2.0576 17.9023 1.93297 17.8649 1.81458C17.8275 1.69619 17.6966 1.64011 17.5783 1.67749C17.4599 1.72111 17.4038 1.84574 17.4412 1.96413C17.4723 2.05137 17.5596 2.11368 17.653 2.11368Z" fill="white"/>
<path d="M19.784 1.45341C19.784 1.45341 19.8214 1.45341 19.8401 1.44718C19.9585 1.41602 20.0333 1.2914 20.0021 1.173C19.971 1.05461 19.8526 0.979835 19.7279 1.01099C19.6095 1.04215 19.5348 1.16677 19.5659 1.28516C19.5908 1.38486 19.6843 1.45341 19.784 1.45341Z" fill="white"/>
<path d="M9.91359 6.4822C9.96344 6.4822 10.0133 6.46351 10.0569 6.42612C10.1566 6.35134 10.1691 6.21426 10.0943 6.11456C10.0133 6.02109 9.87621 6.0024 9.77651 6.0834C9.68304 6.15818 9.67057 6.3015 9.74535 6.39496C9.78897 6.45104 9.85128 6.4822 9.91982 6.4822H9.91359Z" fill="white"/>
<path d="M6.66116 43.9128C6.56769 43.9938 6.55523 44.1371 6.63624 44.2244C6.67985 44.2742 6.74216 44.2991 6.80447 44.2991C6.86055 44.2991 6.91041 44.2804 6.95402 44.2431C7.04749 44.1558 7.05372 44.0187 6.97272 43.9253C6.89171 43.8318 6.74839 43.8193 6.66116 43.9066V43.9128Z" fill="white"/>
<path d="M46.0985 43.8567C46.0112 43.9502 46.0237 44.0873 46.1172 44.1745C46.1608 44.2119 46.2169 44.2306 46.2667 44.2306C46.329 44.2306 46.3913 44.2057 46.435 44.1558C46.516 44.0624 46.5097 43.919 46.41 43.838C46.3166 43.757 46.1795 43.7633 46.0985 43.863V43.8567Z" fill="white"/>
<path d="M47.4878 42.1372C47.4131 42.2369 47.4318 42.3802 47.5315 42.4487C47.5688 42.4799 47.6187 42.4923 47.6685 42.4923C47.7371 42.4923 47.8056 42.4612 47.8492 42.4051C47.924 42.3054 47.9053 42.1621 47.8056 42.0935C47.6997 42.0188 47.5626 42.0375 47.4941 42.1372H47.4878Z" fill="white"/>
<path d="M28.763 52.6364C28.6446 52.6489 28.5512 52.7548 28.5636 52.8794C28.5698 52.9916 28.6695 53.0788 28.7879 53.0788H28.8066C28.925 53.0664 29.0185 52.9605 29.0123 52.8358C28.9998 52.7112 28.8939 52.624 28.763 52.6302V52.6364Z" fill="white"/>
<path d="M26.5512 53.1791C26.6751 53.1791 26.7756 53.0787 26.7756 52.9548C26.7756 52.8309 26.6751 52.7305 26.5512 52.7305C26.4273 52.7305 26.3269 52.8309 26.3269 52.9548C26.3269 53.0787 26.4273 53.1791 26.5512 53.1791Z" fill="white"/>
<path d="M30.9567 52.3499C30.8383 52.3748 30.7511 52.487 30.776 52.6116C30.7947 52.7175 30.8944 52.7985 31.0003 52.7985C31.0066 52.7985 31.0252 52.7985 31.0377 52.7985C31.1561 52.7736 31.2371 52.6615 31.2184 52.5368C31.1935 52.4184 31.0813 52.3374 30.9567 52.3499Z" fill="white"/>
<path d="M39.2563 49.4086C39.1504 49.4647 39.1068 49.6018 39.1691 49.7139C39.2127 49.7825 39.2875 49.8261 39.3685 49.8261C39.4059 49.8261 39.4433 49.8136 39.4807 49.8012C39.5866 49.7389 39.624 49.6018 39.5679 49.4958C39.5056 49.3899 39.3685 49.3463 39.2626 49.4086H39.2563Z" fill="white"/>
<path d="M43.2261 46.9544C43.1451 46.8547 43.008 46.8423 42.9083 46.9233C42.8149 46.9981 42.8024 47.1352 42.8772 47.2349C42.9208 47.2909 42.9831 47.3159 43.0517 47.3159C43.1015 47.3159 43.1514 47.3034 43.195 47.266C43.2947 47.1912 43.3071 47.0479 43.2324 46.9544H43.2261Z" fill="white"/>
<path d="M35.2316 51.2346C35.1132 51.272 35.0509 51.4029 35.0945 51.5213C35.1257 51.6085 35.2129 51.6708 35.3064 51.6708C35.3313 51.6708 35.3562 51.6708 35.3811 51.6584C35.4933 51.621 35.5556 51.4901 35.5182 51.3717C35.4808 51.2533 35.35 51.191 35.2316 51.2346Z" fill="white"/>
<path d="M37.2814 50.4058C37.1693 50.4557 37.1194 50.5865 37.1755 50.6987C37.2129 50.7797 37.2939 50.8295 37.3749 50.8295C37.4061 50.8295 37.4372 50.8296 37.4684 50.8109C37.5805 50.7548 37.6304 50.6302 37.5805 50.518C37.5244 50.3996 37.3998 50.3497 37.2814 50.4058Z" fill="white"/>
<path d="M44.5654 45.458C44.4782 45.5453 44.4782 45.6886 44.5654 45.7696C44.609 45.8195 44.6714 45.8444 44.7274 45.8444C44.7835 45.8444 44.8396 45.8194 44.8832 45.7821C44.9705 45.6948 44.9705 45.5515 44.8832 45.4643C44.796 45.377 44.6527 45.3708 44.5654 45.4643V45.458Z" fill="white"/>
<path d="M33.1189 51.8895C33.0005 51.9207 32.9319 52.0391 32.9631 52.1637C32.988 52.2634 33.0815 52.3319 33.1812 52.3319C33.1999 52.3319 33.2185 52.3319 33.2372 52.3319C33.3556 52.2946 33.4242 52.1762 33.393 52.0578C33.3619 51.9394 33.2435 51.8646 33.1189 51.8958V51.8895Z" fill="white"/>
<path d="M9.85782 47.0161C9.77681 47.1096 9.79551 47.2529 9.88897 47.3277C9.93259 47.3588 9.98244 47.3775 10.0323 47.3775C10.0946 47.3775 10.1631 47.3526 10.2068 47.2903C10.2815 47.1968 10.2628 47.0535 10.1694 46.9787C10.0697 46.904 9.93259 46.9164 9.85782 47.0161Z" fill="white"/>
<path d="M11.9513 48.3004C11.8454 48.2319 11.7083 48.263 11.6398 48.3627C11.5712 48.4624 11.6024 48.6057 11.7021 48.6743C11.7394 48.6992 11.7831 48.7117 11.8205 48.7117C11.889 48.7117 11.9638 48.6805 12.0074 48.612C12.0759 48.5123 12.0448 48.3689 11.9451 48.3004H11.9513Z" fill="white"/>
<path d="M49.0332 40.23C48.9273 40.1614 48.7902 40.1988 48.7217 40.3047C48.6531 40.4107 48.6905 40.5478 48.7964 40.6163C48.8338 40.6412 48.8712 40.6475 48.9148 40.6475C48.9896 40.6475 49.0644 40.6101 49.108 40.5415C49.1765 40.4356 49.1392 40.2923 49.0332 40.23Z" fill="white"/>
<path d="M24.3454 52.6429C24.2208 52.6366 24.1148 52.7301 24.1024 52.8485C24.0961 52.9731 24.1834 53.0791 24.308 53.0915C24.4264 53.0978 24.5386 53.0105 24.551 52.8859C24.5572 52.7675 24.4638 52.6553 24.3454 52.6429Z" fill="white"/>
<path d="M13.8394 49.4527C13.7335 49.3966 13.5964 49.434 13.5341 49.5399C13.478 49.6459 13.5092 49.783 13.6213 49.8453C13.6525 49.864 13.6961 49.8702 13.7273 49.8702C13.802 49.8702 13.8768 49.8328 13.9267 49.7518C13.9827 49.6459 13.9453 49.5088 13.8394 49.4465V49.4527Z" fill="white"/>
<path d="M8.18788 45.5329C8.10064 45.6201 8.10688 45.7634 8.19412 45.8507C8.23774 45.888 8.29381 45.913 8.34366 45.913C8.39974 45.913 8.46206 45.888 8.50568 45.8382C8.59292 45.751 8.58668 45.6076 8.50568 45.5204C8.41844 45.4332 8.27512 45.4394 8.18788 45.5266V45.5329Z" fill="white"/>
<path d="M19.9838 51.9143C19.8654 51.8832 19.7346 51.9579 19.7097 52.0763C19.6785 52.1947 19.747 52.3193 19.8654 52.3505C19.8904 52.3505 19.9028 52.3505 19.9215 52.3505C20.0212 52.3505 20.1147 52.282 20.1396 52.1823C20.1708 52.0639 20.1022 51.933 19.9776 51.9081L19.9838 51.9143Z" fill="white"/>
<path d="M22.1516 52.3689C22.0332 52.3502 21.9148 52.4312 21.8961 52.5558C21.8712 52.6742 21.9522 52.7926 22.0768 52.8175H22.1142C22.2201 52.8175 22.3136 52.7428 22.3323 52.6306C22.3572 52.5122 22.27 52.3938 22.1516 52.3689Z" fill="white"/>
<path d="M17.8708 51.2658C17.7524 51.2284 17.6215 51.2907 17.5841 51.4028C17.5467 51.5212 17.609 51.6521 17.7212 51.6895C17.7461 51.6957 17.771 51.7019 17.796 51.7019C17.8832 51.7019 17.9767 51.6459 18.0078 51.5462C18.0452 51.4278 17.9829 51.2969 17.8708 51.2595V51.2658Z" fill="white"/>
<path d="M48.8901 13.0867C48.9275 13.0867 48.9711 13.0743 49.0085 13.0493C49.1144 12.9808 49.1456 12.8499 49.0833 12.7378C49.0147 12.6319 48.8776 12.6007 48.7717 12.6692C48.6658 12.7316 48.6346 12.8686 48.6969 12.9808C48.7405 13.0493 48.8153 13.0867 48.8901 13.0867Z" fill="white"/>
<path d="M15.815 50.45C15.6966 50.4001 15.5658 50.45 15.5159 50.5621C15.4661 50.6743 15.5159 50.8114 15.6281 50.8612C15.6592 50.8737 15.6904 50.8862 15.7215 50.8862C15.8088 50.8862 15.8898 50.8363 15.9272 50.7491C15.977 50.6369 15.9272 50.4998 15.815 50.45Z" fill="white"/>
<path d="M52.6225 29.7494C52.5041 29.7369 52.3919 29.8179 52.3732 29.9426C52.3545 30.0672 52.448 30.1793 52.5664 30.1918C52.5726 30.1918 52.5851 30.1918 52.5913 30.1918C52.7035 30.1918 52.8032 30.1046 52.8157 29.9924C52.8281 29.8678 52.7409 29.7619 52.6163 29.7432L52.6225 29.7494Z" fill="white"/>
<path d="M51.6503 19.1632C51.6503 19.1632 51.6939 19.1632 51.7189 19.157C51.8372 19.1196 51.8996 18.995 51.8684 18.8766C51.831 18.7582 51.7064 18.6896 51.588 18.727C51.4696 18.7644 51.4011 18.889 51.4385 19.0074C51.4696 19.1009 51.5568 19.1632 51.6503 19.1632Z" fill="white"/>
<path d="M0.218096 25.8487H0.224324C0.342717 25.8487 0.442417 25.7552 0.448648 25.6368C0.448648 25.5122 0.355181 25.4062 0.230557 25.4062C0.105932 25.4062 0 25.4935 0 25.6243C0 25.7427 0.0872408 25.8549 0.218096 25.8549V25.8487Z" fill="white"/>
<path d="M51.7316 34.1172C51.6132 34.0798 51.4885 34.1421 51.4511 34.2668C51.4138 34.3852 51.4823 34.5098 51.6007 34.5472C51.6256 34.5534 51.6443 34.5596 51.6692 34.5596C51.7627 34.5596 51.8499 34.4973 51.8873 34.3976C51.9247 34.2792 51.8562 34.1546 51.7378 34.1172H51.7316Z" fill="white"/>
<path d="M0.379782 23.6178C0.379782 23.6178 0.398476 23.6178 0.404707 23.6178C0.516869 23.6178 0.616569 23.5306 0.629032 23.4184C0.641494 23.2938 0.554257 23.1816 0.429633 23.1692C0.31124 23.1567 0.199077 23.2439 0.180383 23.3623C0.167921 23.4869 0.255158 23.5991 0.379782 23.6116V23.6178Z" fill="white"/>
<path d="M1.02797 32.2228C1.00304 32.1044 0.884649 32.0234 0.766256 32.0546C0.647863 32.0795 0.566859 32.2041 0.598015 32.3225C0.62294 32.4284 0.716407 32.497 0.816107 32.497C0.834801 32.497 0.847264 32.497 0.865958 32.497C0.984351 32.472 1.06535 32.3537 1.0342 32.2353L1.02797 32.2228Z" fill="white"/>
<path d="M0.647931 30.042C0.629237 29.9236 0.517079 29.8364 0.398686 29.8488C0.280293 29.8675 0.186821 29.9797 0.205515 30.0981C0.217977 30.2103 0.317676 30.2975 0.423606 30.2975C0.436069 30.2975 0.448533 30.2975 0.454764 30.2975C0.573157 30.285 0.666624 30.1729 0.647931 30.0482V30.042Z" fill="white"/>
<path d="M0.243137 28.0788C0.36153 28.0726 0.461227 27.9666 0.454996 27.8483C0.454996 27.7236 0.349064 27.6239 0.224439 27.6302C0.0998149 27.6302 0.00634766 27.7361 0.00634766 27.8607C0.0125789 27.9791 0.11228 28.0788 0.236904 28.0788H0.243137Z" fill="white"/>
<path d="M2.94734 38.3607C2.83518 38.4168 2.79156 38.5476 2.84765 38.6598C2.88503 38.7346 2.96604 38.7782 3.04704 38.7782C3.08443 38.7782 3.12182 38.7782 3.15297 38.7533C3.26514 38.6972 3.30252 38.5601 3.25267 38.4542C3.19659 38.342 3.05951 38.2984 2.95357 38.3545L2.94734 38.3607Z" fill="white"/>
<path d="M41.1322 48.2439C41.0325 48.3124 41.0013 48.4495 41.0761 48.5555C41.1197 48.624 41.1882 48.6552 41.2568 48.6552C41.3004 48.6552 41.344 48.6427 41.3814 48.6178C41.4873 48.543 41.5123 48.4059 41.4437 48.3062C41.3689 48.2003 41.2319 48.1754 41.1322 48.2501V48.2439Z" fill="white"/>
<path d="M2.87884 15.0937C2.90999 15.1124 2.94738 15.1187 2.97854 15.1187C3.05954 15.1187 3.14055 15.075 3.17794 15.0003C3.23402 14.8881 3.18417 14.751 3.07824 14.7012C2.96607 14.6451 2.82899 14.6887 2.77291 14.8009C2.71683 14.913 2.76667 15.0501 2.87884 15.1V15.0937Z" fill="white"/>
<path d="M3.94453 13.1301C3.98192 13.1551 4.0193 13.1613 4.06292 13.1613C4.1377 13.1613 4.21247 13.1239 4.25609 13.0554C4.3184 12.9494 4.28725 12.8123 4.18132 12.7438C4.07539 12.6815 3.9383 12.7126 3.87598 12.8186C3.80744 12.9245 3.8386 13.0616 3.95076 13.1301H3.94453Z" fill="white"/>
<path d="M1.98788 17.1376C1.98788 17.1376 2.04396 17.1563 2.06889 17.1563C2.15612 17.1563 2.24336 17.1002 2.28075 17.0192C2.32436 16.9008 2.26829 16.7699 2.15612 16.7263C2.03773 16.6765 1.90687 16.7325 1.86326 16.8447C1.81964 16.9631 1.86948 17.094 1.98788 17.1376Z" fill="white"/>
<path d="M52.2734 31.9496C52.155 31.9247 52.0304 32.0057 52.0055 32.1241C51.9806 32.2425 52.0616 32.3671 52.18 32.3858C52.1924 32.3858 52.2111 32.3858 52.2236 32.3858C52.3295 32.3858 52.423 32.311 52.4417 32.2113C52.4666 32.0929 52.3918 31.9683 52.2734 31.9434V31.9496Z" fill="white"/>
<path d="M0.729039 21.4127C0.729039 21.4127 0.760195 21.4127 0.772658 21.4127C0.878588 21.4127 0.972055 21.3441 0.990749 21.2382C1.01567 21.1198 0.940901 20.9952 0.822508 20.9765C0.704115 20.9515 0.579491 21.0263 0.554566 21.1447C0.529641 21.2631 0.610646 21.3877 0.729039 21.4064V21.4127Z" fill="white"/>
<path d="M52.2111 21.3179C52.2111 21.3179 52.2423 21.3179 52.2547 21.3179C52.3731 21.293 52.4541 21.1684 52.4292 21.0562C52.4043 20.9316 52.2797 20.8568 52.1613 20.8817C52.0429 20.9067 51.9619 21.0313 51.993 21.1434C52.018 21.2494 52.1114 21.3241 52.2111 21.3241V21.3179Z" fill="white"/>
<path d="M49.987 15.0313C50.0181 15.0313 50.0555 15.0251 50.0867 15.0064C50.1988 14.9503 50.2425 14.8195 50.1864 14.7073C50.1303 14.5951 49.9994 14.5578 49.8873 14.6076C49.7751 14.6637 49.7315 14.8008 49.7876 14.9067C49.8312 14.9877 49.906 15.0313 49.987 15.0313Z" fill="white"/>
<path d="M5.26558 42.1687C5.16588 42.2373 5.14719 42.3806 5.22197 42.4803C5.26559 42.5364 5.33413 42.5675 5.40267 42.5675C5.44629 42.5675 5.49614 42.5488 5.53976 42.5239C5.63946 42.4491 5.65815 42.3058 5.58338 42.2124C5.5086 42.1127 5.36529 42.094 5.27182 42.1687H5.26558Z" fill="white"/>
<path d="M2.03758 36.3232C1.92542 36.3731 1.86933 36.5039 1.91918 36.6161C1.95034 36.7033 2.03758 36.7594 2.12481 36.7594C2.14974 36.7594 2.18089 36.7469 2.21205 36.7407C2.32421 36.6971 2.3803 36.56 2.33045 36.4478C2.28683 36.3294 2.15597 36.2796 2.03758 36.3232Z" fill="white"/>
<path d="M50.1052 38.2744C49.9931 38.2183 49.856 38.2619 49.8061 38.3741C49.7501 38.4863 49.7937 38.6234 49.9058 38.6732C49.937 38.6919 49.9744 38.6981 50.0055 38.6981C50.0928 38.6981 50.1676 38.6545 50.2049 38.5797C50.261 38.4676 50.2112 38.3367 50.1052 38.2806V38.2744Z" fill="white"/>
<path d="M50.9026 17.0566C50.9026 17.0566 50.9587 17.0566 50.9899 17.0379C51.102 16.9943 51.1581 16.8634 51.1083 16.745C51.0647 16.6266 50.9338 16.5768 50.8154 16.6266C50.7032 16.6703 50.6472 16.8011 50.697 16.9195C50.7344 17.0067 50.8154 17.0566 50.9026 17.0566Z" fill="white"/>
<path d="M51.0087 36.2295C50.8903 36.1858 50.7594 36.2357 50.7158 36.3541C50.6722 36.4725 50.722 36.6033 50.8404 36.647C50.8653 36.6532 50.8965 36.6657 50.9214 36.6657C51.0087 36.6657 51.0959 36.6096 51.1333 36.5223C51.1769 36.4039 51.1208 36.2731 51.0087 36.2295Z" fill="white"/>
<path d="M1.26463 19.2497C1.26463 19.2497 1.30825 19.2559 1.33318 19.2559C1.42664 19.2559 1.51388 19.1936 1.55127 19.1002C1.58866 18.9818 1.52011 18.8571 1.40172 18.8198C1.28332 18.7824 1.1587 18.8509 1.12131 18.9755C1.08393 19.0939 1.15247 19.2186 1.27086 19.2559L1.26463 19.2497Z" fill="white"/>
<path d="M4.02561 40.3173C3.91968 40.3796 3.88852 40.5167 3.95083 40.6289C3.99445 40.6974 4.06922 40.7348 4.144 40.7348C4.18138 40.7348 4.225 40.7286 4.26239 40.7036C4.36832 40.6351 4.39948 40.498 4.33717 40.3921C4.26862 40.2861 4.13777 40.255 4.02561 40.3235V40.3173Z" fill="white"/>
<path d="M52.791 27.5244C52.6664 27.5244 52.5604 27.6117 52.5542 27.7363C52.5542 27.8609 52.6477 27.9668 52.7661 27.9731H52.7723C52.8907 27.9731 52.9904 27.8734 52.9966 27.7612C52.9966 27.6366 52.9094 27.5306 52.7848 27.5306L52.791 27.5244Z" fill="white"/>
<path d="M1.30865 34.2174C1.19025 34.2548 1.12794 34.3795 1.15909 34.4978C1.19025 34.5975 1.27749 34.6599 1.37719 34.6599C1.40212 34.6599 1.42081 34.6599 1.44573 34.6474C1.56413 34.61 1.62644 34.4854 1.59528 34.367C1.55789 34.2424 1.42704 34.1863 1.31487 34.2174H1.30865Z" fill="white"/>
<path d="M26.5011 9.00553V7.21094C15.8146 7.21094 7.12207 15.9035 7.12207 26.59H8.91665C8.91665 16.8942 16.8054 8.9993 26.5074 8.9993L26.5011 9.00553Z" fill="white"/>
<path d="M26.5011 48.506V46.7114C21.1111 46.7114 16.2134 44.5741 12.5993 41.1095L15.7523 37.9565C18.5563 40.6235 22.3387 42.2685 26.5073 42.2685V41.8199C22.4633 41.8199 18.7931 40.2247 16.0701 37.6387L18.089 35.6198C20.301 37.6761 23.2609 38.9411 26.5073 38.9411V38.5485C33.1124 38.5485 38.4837 33.1772 38.4837 26.5721H38.8763C38.8763 19.7489 33.3243 14.2031 26.5073 14.2031V14.5957C19.9023 14.5957 14.5309 19.967 14.5309 26.5721H14.1384C14.1384 29.8248 15.3971 32.7784 17.4534 34.9905L15.4407 37.0031C12.9046 34.2926 11.3468 30.6535 11.3468 26.6531H10.8981C10.8981 30.7719 12.5058 34.5231 15.1229 37.3209L11.9699 40.4739C8.51782 36.8598 6.39298 31.9683 6.39298 26.5908H4.59839C4.59839 38.6731 14.425 48.4997 26.5073 48.4997L26.5011 48.506ZM15.0294 26.5783H14.6369C14.6369 20.0355 19.9583 14.7141 26.5011 14.7141V15.1067C32.8258 15.1067 37.9728 20.2536 37.9728 26.5783H38.3654C38.3654 33.1211 33.0439 38.4426 26.5011 38.4426V38.05C23.4977 38.05 20.7622 36.891 18.7183 34.9967L21.5037 32.2113C22.8309 33.4015 24.5819 34.1306 26.5011 34.1306C30.5078 34.1306 33.7667 30.99 33.991 27.0394H30.4019C30.19 29.0085 28.5263 30.5414 26.5011 30.5414C25.5727 30.5414 24.7128 30.2111 24.0398 29.669L24.395 29.3138C24.9745 29.7625 25.7035 30.0366 26.5011 30.0366C28.2458 30.0366 29.6915 28.7281 29.9158 27.0394H29.6915C29.4734 28.6035 28.1275 29.8123 26.5073 29.8123C25.7783 29.8123 25.1053 29.5631 24.5632 29.1518L25.473 28.2421C25.7721 28.4352 26.1272 28.5474 26.5073 28.5474C27.5729 28.5474 28.439 27.6812 28.439 26.6157C28.439 25.5502 27.5729 24.684 26.5073 24.684C25.4418 24.684 24.5757 25.5502 24.5757 26.6157C24.5757 26.9771 24.6816 27.3074 24.8498 27.594L23.9339 28.51C23.6161 28.0863 23.398 27.5815 23.3232 27.0332H23.0989C23.1799 27.6439 23.4167 28.2047 23.7781 28.672L23.4229 29.0272C22.9805 28.4664 22.6876 27.7809 22.6128 27.0332H19.0237C19.1171 28.7655 19.8026 30.342 20.8806 31.5695L18.0952 34.3549C16.2009 32.3048 15.0419 29.5693 15.0419 26.5721L15.0294 26.5783ZM25.0181 32.3734C25.0181 31.5571 25.6848 30.8903 26.5011 30.8903C27.3174 30.8903 27.9841 31.5571 27.9841 32.3734C27.9841 33.1896 27.3174 33.8564 26.5011 33.8564C25.6848 33.8564 25.0181 33.1896 25.0181 32.3734Z" fill="white"/>
<path d="M25.604 50.668C25.604 50.668 25.6167 50.6935 25.6295 50.6935C25.6422 50.6935 25.6549 50.6808 25.6549 50.668C25.6549 50.6553 25.6422 50.6426 25.6295 50.6426C25.6167 50.6426 25.604 50.6553 25.604 50.668Z" fill="white"/>
<path d="M24.7316 50.5684C24.7316 50.5684 24.6816 50.5871 24.6816 50.6184C24.6816 50.6496 24.7004 50.6684 24.7316 50.6684C24.7629 50.6684 24.7816 50.6496 24.7816 50.6184C24.7816 50.5871 24.7629 50.5684 24.7316 50.5684Z" fill="white"/>
<path d="M23.828 50.4678C23.7905 50.4678 23.7593 50.499 23.7593 50.5365C23.7593 50.574 23.7905 50.6053 23.828 50.6053C23.8655 50.6053 23.8968 50.574 23.8968 50.5365C23.8968 50.499 23.8655 50.4678 23.828 50.4678Z" fill="white"/>
<path d="M22.9376 50.3311C22.8876 50.3311 22.8501 50.3686 22.8501 50.4186C22.8501 50.4686 22.8876 50.5061 22.9376 50.5061C22.9876 50.5061 23.0251 50.4686 23.0251 50.4186C23.0251 50.3686 22.9876 50.3311 22.9376 50.3311Z" fill="white"/>
<path d="M21.9402 50.2693C21.9402 50.3256 21.9839 50.3756 22.0464 50.3756C22.1089 50.3756 22.1527 50.3256 22.1527 50.2693C22.1527 50.2131 22.1027 50.1631 22.0464 50.1631C21.9902 50.1631 21.9402 50.2131 21.9402 50.2693Z" fill="white"/>
<path d="M21.1681 49.9639C21.0993 49.9639 21.0493 50.0201 21.0493 50.0826C21.0493 50.1451 21.1056 50.2014 21.1681 50.2014C21.2306 50.2014 21.2868 50.1451 21.2868 50.0826C21.2868 50.0201 21.2306 49.9639 21.1681 49.9639Z" fill="white"/>
<path d="M20.289 49.7324C20.214 49.7324 20.1577 49.7887 20.1577 49.8637C20.1577 49.9387 20.214 49.9949 20.289 49.9949C20.364 49.9949 20.4202 49.9387 20.4202 49.8637C20.4202 49.7887 20.364 49.7324 20.289 49.7324Z" fill="white"/>
<path d="M19.423 49.4766C19.3418 49.4766 19.2793 49.5391 19.2793 49.6203C19.2793 49.7016 19.3418 49.7641 19.423 49.7641C19.5043 49.7641 19.5668 49.7016 19.5668 49.6203C19.5668 49.5391 19.5043 49.4766 19.423 49.4766Z" fill="white"/>
<path d="M18.5693 49.1846C18.4818 49.1846 18.4131 49.2533 18.4131 49.3408C18.4131 49.4283 18.4818 49.4971 18.5693 49.4971C18.6568 49.4971 18.7256 49.4283 18.7256 49.3408C18.7256 49.2533 18.6568 49.1846 18.5693 49.1846Z" fill="white"/>
<path d="M17.7215 49.1841C17.8149 49.1841 17.8897 49.1094 17.8897 49.0159C17.8897 48.9224 17.8149 48.8477 17.7215 48.8477C17.628 48.8477 17.5532 48.9224 17.5532 49.0159C17.5532 49.1094 17.628 49.1841 17.7215 49.1841Z" fill="white"/>
<path d="M16.8864 48.5C16.7867 48.5 16.7119 48.581 16.7119 48.6745C16.7119 48.7679 16.7929 48.8489 16.8864 48.8489C16.9799 48.8489 17.0609 48.7679 17.0609 48.6745C17.0609 48.581 16.9799 48.5 16.8864 48.5Z" fill="white"/>
<path d="M16.0702 48.1133C15.9643 48.1133 15.8833 48.2005 15.8833 48.3002C15.8833 48.3999 15.9705 48.4872 16.0702 48.4872C16.1699 48.4872 16.2572 48.3999 16.2572 48.3002C16.2572 48.2005 16.1699 48.1133 16.0702 48.1133Z" fill="white"/>
<path d="M15.2605 47.7012C15.1546 47.7012 15.0674 47.7884 15.0674 47.8943C15.0674 48.0003 15.1546 48.0875 15.2605 48.0875C15.3665 48.0875 15.4537 48.0003 15.4537 47.8943C15.4537 47.7884 15.3665 47.7012 15.2605 47.7012Z" fill="white"/>
<path d="M14.4748 47.2588C14.3689 47.2588 14.2754 47.346 14.2754 47.4582C14.2754 47.5703 14.3626 47.6576 14.4748 47.6576C14.587 47.6576 14.6742 47.5703 14.6742 47.4582C14.6742 47.346 14.587 47.2588 14.4748 47.2588Z" fill="white"/>
<path d="M13.7023 47.1908C13.8145 47.1908 13.9017 47.1036 13.9017 46.9914C13.9017 46.8792 13.8145 46.792 13.7023 46.792C13.5902 46.792 13.5029 46.8792 13.5029 46.9914C13.5029 47.1036 13.5902 47.1908 13.7023 47.1908Z" fill="white"/>
<path d="M12.9486 46.2939C12.8364 46.2939 12.7429 46.3874 12.7429 46.4996C12.7429 46.6117 12.8364 46.7052 12.9486 46.7052C13.0607 46.7052 13.1542 46.6117 13.1542 46.4996C13.1542 46.3874 13.0607 46.2939 12.9486 46.2939Z" fill="white"/>
<path d="M12.2134 45.7637C12.1013 45.7637 12.0078 45.8571 12.0078 45.9693C12.0078 46.0815 12.1013 46.1749 12.2134 46.1749C12.3256 46.1749 12.4191 46.0815 12.4191 45.9693C12.4191 45.8571 12.3256 45.7637 12.2134 45.7637Z" fill="white"/>
<path d="M11.7084 45.4277C11.7084 45.3093 11.6149 45.2158 11.4965 45.2158C11.3781 45.2158 11.2847 45.3093 11.2847 45.4277C11.2847 45.5461 11.3781 45.6395 11.4965 45.6395C11.6149 45.6395 11.7084 45.5461 11.7084 45.4277Z" fill="white"/>
<path d="M10.805 44.6357C10.6866 44.6357 10.5869 44.7354 10.5869 44.8538C10.5869 44.9722 10.6866 45.0719 10.805 45.0719C10.9234 45.0719 11.0231 44.9722 11.0231 44.8538C11.0231 44.7354 10.9234 44.6357 10.805 44.6357Z" fill="white"/>
<path d="M10.1322 44.0322C10.0138 44.0322 9.91406 44.1319 9.91406 44.2503C9.91406 44.3687 10.0138 44.4684 10.1322 44.4684C10.2506 44.4684 10.3502 44.3687 10.3502 44.2503C10.3502 44.1319 10.2506 44.0322 10.1322 44.0322Z" fill="white"/>
<path d="M9.4836 43.4023C9.35898 43.4023 9.25928 43.502 9.25928 43.6267C9.25928 43.7513 9.35898 43.851 9.4836 43.851C9.60823 43.851 9.70793 43.7513 9.70793 43.6267C9.70793 43.502 9.60823 43.4023 9.4836 43.4023Z" fill="white"/>
<path d="M8.86066 42.7539C8.73604 42.7539 8.64258 42.8536 8.64258 42.972C8.64258 43.0904 8.74227 43.1901 8.86066 43.1901C8.97906 43.1901 9.07876 43.0904 9.07876 42.972C9.07876 42.8536 8.97906 42.7539 8.86066 42.7539Z" fill="white"/>
<path d="M8.47476 42.306C8.47476 42.1876 8.37505 42.0879 8.25666 42.0879C8.13827 42.0879 8.03857 42.1876 8.03857 42.306C8.03857 42.4244 8.13827 42.5241 8.25666 42.5241C8.37505 42.5241 8.47476 42.4244 8.47476 42.306Z" fill="white"/>
<path d="M7.68305 41.3955C7.56466 41.3955 7.47119 41.489 7.47119 41.6074C7.47119 41.7258 7.56466 41.8192 7.68305 41.8192C7.80144 41.8192 7.89491 41.7258 7.89491 41.6074C7.89491 41.489 7.80144 41.3955 7.68305 41.3955Z" fill="white"/>
<path d="M7.13471 40.6846C7.01632 40.6846 6.92285 40.778 6.92285 40.8902C6.92285 41.0024 7.01632 41.1021 7.13471 41.1021C7.2531 41.1021 7.34034 41.0086 7.34034 40.8902C7.34034 40.7718 7.24687 40.6846 7.13471 40.6846Z" fill="white"/>
<path d="M6.81702 40.1617C6.81702 40.0495 6.72355 39.9561 6.61139 39.9561C6.49923 39.9561 6.40576 40.0495 6.40576 40.1617C6.40576 40.2738 6.49923 40.3673 6.61139 40.3673C6.72355 40.3673 6.81702 40.2738 6.81702 40.1617Z" fill="white"/>
<path d="M6.11884 39.208C6.00668 39.208 5.91943 39.2952 5.91943 39.4074C5.91943 39.5196 6.00668 39.6068 6.11884 39.6068C6.231 39.6068 6.31823 39.5196 6.31823 39.4074C6.31823 39.2952 6.231 39.208 6.11884 39.208Z" fill="white"/>
<path d="M5.65155 38.8343C5.76168 38.8343 5.85095 38.7451 5.85095 38.6349C5.85095 38.5248 5.76168 38.4355 5.65155 38.4355C5.54143 38.4355 5.45215 38.5248 5.45215 38.6349C5.45215 38.7451 5.54143 38.8343 5.65155 38.8343Z" fill="white"/>
<path d="M5.40855 37.8494C5.40855 37.7435 5.32132 37.6562 5.21539 37.6562C5.10946 37.6562 5.02222 37.7435 5.02222 37.8494C5.02222 37.9553 5.10946 38.0426 5.21539 38.0426C5.32132 38.0426 5.40855 37.9553 5.40855 37.8494Z" fill="white"/>
<path d="M4.80413 36.8594C4.6982 36.8594 4.61719 36.9466 4.61719 37.0463C4.61719 37.146 4.70443 37.2332 4.80413 37.2332C4.90383 37.2332 4.99106 37.146 4.99106 37.0463C4.99106 36.9466 4.90383 36.8594 4.80413 36.8594Z" fill="white"/>
<path d="M4.43021 36.0488C4.33051 36.0488 4.24951 36.1298 4.24951 36.2295C4.24951 36.3292 4.33051 36.4102 4.43021 36.4102C4.52991 36.4102 4.61092 36.3292 4.61092 36.2295C4.61092 36.1298 4.52991 36.0488 4.43021 36.0488Z" fill="white"/>
<path d="M4.08157 35.563C4.17504 35.563 4.24982 35.4883 4.24982 35.3948C4.24982 35.3013 4.17504 35.2266 4.08157 35.2266C3.9881 35.2266 3.91333 35.3013 3.91333 35.3948C3.91333 35.4883 3.9881 35.563 4.08157 35.563Z" fill="white"/>
<path d="M3.77026 34.3984C3.68276 34.3984 3.61401 34.4672 3.61401 34.5547C3.61401 34.6422 3.68276 34.7109 3.77026 34.7109C3.85776 34.7109 3.92651 34.6422 3.92651 34.5547C3.92651 34.4672 3.85776 34.3984 3.77026 34.3984Z" fill="white"/>
<path d="M3.48994 33.5508C3.40869 33.5508 3.34619 33.6133 3.34619 33.6945C3.34619 33.7758 3.40869 33.8383 3.48994 33.8383C3.57119 33.8383 3.63369 33.7758 3.63369 33.6945C3.63369 33.6133 3.57119 33.5508 3.48994 33.5508Z" fill="white"/>
<path d="M3.24062 32.9598C3.31311 32.9598 3.37187 32.901 3.37187 32.8285C3.37187 32.756 3.31311 32.6973 3.24062 32.6973C3.16814 32.6973 3.10938 32.756 3.10938 32.8285C3.10938 32.901 3.16814 32.9598 3.24062 32.9598Z" fill="white"/>
<path d="M2.90381 31.9557C2.90381 32.0244 2.96006 32.0744 3.02256 32.0744C3.08506 32.0744 3.1413 32.0182 3.1413 31.9557C3.1413 31.8932 3.08506 31.8369 3.02256 31.8369C2.96006 31.8369 2.90381 31.8932 2.90381 31.9557Z" fill="white"/>
<path d="M2.94199 31.0701C2.94199 31.0139 2.89199 30.9639 2.83574 30.9639C2.77949 30.9639 2.72949 31.0139 2.72949 31.0701C2.72949 31.1264 2.77949 31.1764 2.83574 31.1764C2.89199 31.1764 2.94199 31.1264 2.94199 31.0701Z" fill="white"/>
<path d="M2.77363 30.1861C2.77363 30.1361 2.73613 30.0986 2.68613 30.0986C2.63613 30.0986 2.59863 30.1361 2.59863 30.1861C2.59863 30.2361 2.63613 30.2736 2.68613 30.2736C2.73613 30.2736 2.77363 30.2361 2.77363 30.1861Z" fill="white"/>
<path d="M2.63603 29.2885C2.63603 29.251 2.60478 29.2197 2.56728 29.2197C2.52979 29.2197 2.49854 29.251 2.49854 29.2885C2.49854 29.326 2.52979 29.3572 2.56728 29.3572C2.60478 29.3572 2.63603 29.326 2.63603 29.2885Z" fill="white"/>
<path d="M2.52993 28.3908C2.52993 28.3908 2.51118 28.3408 2.47993 28.3408C2.44868 28.3408 2.42993 28.3596 2.42993 28.3908C2.42993 28.4221 2.44868 28.4408 2.47993 28.4408C2.51118 28.4408 2.52993 28.4221 2.52993 28.3908Z" fill="white"/>
<path d="M2.43684 27.4619C2.43684 27.4619 2.41138 27.4746 2.41138 27.4874C2.41138 27.5001 2.42411 27.5128 2.43684 27.5128C2.44958 27.5128 2.46231 27.5001 2.46231 27.4874C2.46231 27.4746 2.44958 27.4619 2.43684 27.4619Z" fill="white"/>
<path d="M26.5015 46.1689C37.2939 46.1689 46.0737 37.3891 46.0737 26.5967H44.2791C44.2791 36.3984 36.3032 44.3743 26.5015 44.3743V46.1689Z" fill="white"/>
<path d="M42.2848 11.9531L39.0694 15.1684L37.6487 13.7477L40.864 10.5324L41.1133 10.2831C37.2312 6.80611 32.1154 4.6875 26.5073 4.6875V6.48209C31.1247 6.48209 35.3743 8.04613 38.7766 10.6695L35.6859 13.7602C35.6298 13.8162 35.5862 13.8785 35.5426 13.9409C32.994 12.1276 29.8784 11.0496 26.5136 11.0496V11.4982C29.7849 11.4982 32.8195 12.5451 35.2996 14.3147C34.9008 15.1123 35.0254 16.1031 35.6859 16.7698L36.0535 17.1375C36.739 17.8229 37.7671 17.9351 38.5772 17.4926C40.5151 20.0412 41.6741 23.2191 41.6741 26.6588H42.1228C42.1228 23.1194 40.9388 19.8543 38.9448 17.2372C38.9822 17.206 39.0258 17.1749 39.0632 17.1375L42.1851 14.0156C44.9579 17.4615 46.6217 21.842 46.6217 26.5965H48.4163C48.4163 20.845 46.1855 15.6108 42.5465 11.6976L42.2848 11.9593V11.9531ZM37.3247 16.2464C36.901 16.2464 36.552 15.9037 36.552 15.4737C36.552 15.0438 36.8948 14.7011 37.3247 14.7011C37.7547 14.7011 38.0974 15.0438 38.0974 15.4737C38.0974 15.9037 37.7547 16.2464 37.3247 16.2464Z" fill="white"/>
<path d="M13.1293 26.6587C13.1293 19.281 19.13 13.2865 26.5015 13.2865V12.8379C18.8807 12.8379 12.6807 19.038 12.6807 26.6587H13.1293Z" fill="white"/>
<path d="M26.5015 40.0875V40.5361C34.1534 40.5361 40.3784 34.3111 40.3784 26.6592H39.9297C39.9297 34.0619 33.9041 40.0875 26.5015 40.0875Z" fill="white"/>
<path d="M26.9624 43.6758V43.788C36.2033 43.788 43.7181 36.2731 43.7181 27.0322H43.606C43.606 36.2108 36.141 43.6758 26.9624 43.6758Z" fill="white"/>
<path d="M26.5513 40.9774V41.0896C34.5272 41.0896 41.0202 34.6029 41.0202 26.627H40.908C40.908 34.5406 34.4711 40.9837 26.5513 40.9837V40.9774Z" fill="white"/>
<path d="M2.41755 27.2252C2.7548 27.2252 3.0282 26.9518 3.0282 26.6146C3.0282 26.2773 2.7548 26.0039 2.41755 26.0039C2.08029 26.0039 1.80688 26.2773 1.80688 26.6146C1.80688 26.9518 2.08029 27.2252 2.41755 27.2252Z" fill="white"/>
<path d="M26.6136 50.0195C26.2771 50.0195 26.0029 50.2937 26.0029 50.6302C26.0029 50.9667 26.2771 51.2408 26.6136 51.2408C26.9501 51.2408 27.2242 50.9667 27.2242 50.6302C27.2242 50.2937 26.9501 50.0195 26.6136 50.0195Z" fill="white"/>
<path d="M32.446 21.1254C32.8697 21.1254 33.2187 20.7827 33.2187 20.3527C33.2187 19.9228 32.876 19.5801 32.446 19.5801C32.0161 19.5801 31.6733 19.9228 31.6733 20.3527C31.6733 20.7827 32.0161 21.1254 32.446 21.1254Z" fill="white"/>
<path d="M27.7665 46.7363H27.2244V48.4437H27.7665V46.7363Z" fill="white"/>
<path d="M29.5283 46.5436L28.9883 46.5908L29.1371 48.2917L29.6771 48.2444L29.5283 46.5436Z" fill="white"/>
<path d="M31.2443 46.2096L30.7104 46.3037L31.0069 47.9851L31.5408 47.891L31.2443 46.2096Z" fill="white"/>
<path d="M32.9406 45.7279L32.417 45.8682L32.8589 47.5173L33.3825 47.377L32.9406 45.7279Z" fill="white"/>
<path d="M34.5851 45.0939L34.0757 45.2793L34.6596 46.8837L35.1691 46.6983L34.5851 45.0939Z" fill="white"/>
<path d="M36.1666 44.309L35.6753 44.5381L36.3969 46.0855L36.8882 45.8564L36.1666 44.309Z" fill="white"/>
<path d="M37.6741 43.4106L37.2046 43.6816L38.0583 45.1603L38.5277 44.8892L37.6741 43.4106Z" fill="white"/>
<path d="M39.0979 42.356L38.6538 42.667L39.6331 44.0656L40.0772 43.7546L39.0979 42.356Z" fill="white"/>
<path d="M40.4246 41.2179L40.0093 41.5664L41.1067 42.8743L41.522 42.5259L40.4246 41.2179Z" fill="white"/>
<path d="M41.6446 39.9419L41.2612 40.3252L42.4685 41.5325L42.8518 41.1491L41.6446 39.9419Z" fill="white"/>
<path d="M42.7513 38.5642L42.4028 38.9795L43.7107 40.077L44.0592 39.6617L42.7513 38.5642Z" fill="white"/>
<path d="M43.7431 37.1165L43.4321 37.5605L44.8307 38.5398L45.1417 38.0958L43.7431 37.1165Z" fill="white"/>
<path d="M44.5865 35.5666L44.3154 36.0361L45.794 36.8898L46.0651 36.4203L44.5865 35.5666Z" fill="white"/>
<path d="M45.2962 33.9559L45.0671 34.4473L46.6145 35.1688L46.8436 34.6775L45.2962 33.9559Z" fill="white"/>
<path d="M45.8843 32.2993L45.6985 32.8086L47.3024 33.3939L47.4882 32.8847L45.8843 32.2993Z" fill="white"/>
<path d="M46.2833 30.575L46.1431 31.0986L47.7923 31.5402L47.9325 31.0166L46.2833 30.575Z" fill="white"/>
<path d="M46.5624 28.8392L46.4683 29.373L48.1497 29.6695L48.2438 29.1356L46.5624 28.8392Z" fill="white"/>
<path d="M46.6952 27.0859L46.6479 27.626L48.3488 27.7748L48.3961 27.2347L46.6952 27.0859Z" fill="white"/>
</svg>
