<svg width="53" height="54" viewBox="0 0 53 54" fill="none" xmlns="http://www.w3.org/2000/svg">
<path d="M27.3927 8.2083C27.3927 7.5104 26.8256 6.94336 26.1277 6.94336C25.4298 6.94336 24.8628 7.5104 24.8628 8.2083C24.8628 8.90619 25.4298 9.47323 26.1277 9.47323C26.8256 9.47323 27.3927 8.90619 27.3927 8.2083Z" fill="white"/>
<path d="M21.641 10.0652C22.314 9.88446 22.719 9.18657 22.5383 8.5136C22.3576 7.84062 21.6597 7.4356 20.9867 7.6163C20.3138 7.79701 19.9087 8.4949 20.0894 9.16787C20.2702 9.84084 20.968 10.2459 21.641 10.0652Z" fill="white"/>
<path d="M17.466 11.7977C18.0704 11.4487 18.2822 10.6698 17.9271 10.0654C17.5781 9.46097 16.8055 9.24911 16.1948 9.60429C15.5904 9.95323 15.3785 10.7259 15.7337 11.3366C16.0826 11.941 16.8615 12.1529 17.466 11.7977Z" fill="white"/>
<path d="M12.9798 14.9146C13.6784 14.9146 14.2447 14.3483 14.2447 13.6497C14.2447 12.9511 13.6784 12.3848 12.9798 12.3848C12.2812 12.3848 11.7148 12.9511 11.7148 13.6497C11.7148 14.3483 12.2812 14.9146 12.9798 14.9146Z" fill="white"/>
<path d="M10.6616 16.4033C10.0572 16.0543 9.27828 16.26 8.92934 16.8644C8.58039 17.4688 8.78602 18.2477 9.39045 18.5967C9.99488 18.9456 10.7738 18.74 11.1227 18.1356C11.4717 17.5311 11.266 16.7522 10.6616 16.4033Z" fill="white"/>
<path d="M6.94777 21.6556C6.76706 22.3348 7.16585 23.0265 7.84505 23.2072C8.52426 23.3879 9.21593 22.9891 9.39663 22.3099C9.57734 21.6307 9.17854 20.939 8.49933 20.7583C7.82013 20.5776 7.12847 20.9764 6.94777 21.6556Z" fill="white"/>
<path d="M6.44287 26.7904C6.44287 27.4447 6.97253 27.9743 7.62681 27.9743C8.28109 27.9743 8.81073 27.4447 8.81073 26.7904C8.81073 26.1361 8.28109 25.6064 7.62681 25.6064C6.97253 25.6064 6.44287 26.1361 6.44287 26.7904Z" fill="white"/>
<path d="M9.39037 31.2707C9.20966 30.5915 8.51176 30.1927 7.83879 30.3734C7.16582 30.5541 6.76079 31.252 6.9415 31.925C7.1222 32.6042 7.8201 33.003 8.49307 32.8223C9.16604 32.6416 9.57107 31.9437 9.39037 31.2707Z" fill="white"/>
<path d="M10.6554 37.1776C11.2598 36.8286 11.4717 36.0559 11.1165 35.4453C10.7676 34.8409 9.9949 34.629 9.38424 34.9842C8.77981 35.3331 8.56796 36.1058 8.92314 36.7164C9.27208 37.3209 10.051 37.5327 10.6554 37.1776Z" fill="white"/>
<path d="M36.5146 11.3377C36.8636 10.7333 36.658 9.95437 36.0535 9.60542C35.4491 9.25647 34.6702 9.46211 34.3212 10.0665C33.9723 10.671 34.1779 11.4499 34.7823 11.7988C35.3868 12.1478 36.1657 11.9421 36.5146 11.3377Z" fill="white"/>
<path d="M32.1593 9.17512C32.34 8.50215 31.9412 7.80425 31.262 7.62355C30.5891 7.44284 29.8912 7.84164 29.7105 8.52084C29.5298 9.19381 29.9286 9.89171 30.6078 10.0724C31.287 10.2531 31.9786 9.85432 32.1593 9.17512Z" fill="white"/>
<path d="M48.6223 32.2183C48.56 32.2058 48.5039 32.2432 48.4852 32.2993C45.9553 42.6182 36.758 49.8277 26.1151 49.8277C20.2204 49.8277 14.8366 47.5969 10.7614 43.9454C10.8923 43.746 10.9733 43.503 10.9733 43.2475C10.9733 42.9484 10.8673 42.6805 10.6929 42.4624L15.5844 37.5709C18.2575 40.3376 22.0025 42.0636 26.1525 42.0636C30.0782 42.0636 33.6424 40.5245 36.272 38.0133L37.1381 38.8795C34.2095 41.5589 30.3212 43.1603 26.1089 43.1603V44.5062C30.6888 44.5062 34.9136 42.7615 38.0853 39.8328L38.6336 40.3812C35.3311 43.4719 30.9069 45.3163 26.1089 45.3163V49.3479C36.2533 49.3479 45.0456 42.5933 47.6814 32.8539L43.7619 31.9067C42.9768 34.7357 41.5561 37.2469 39.6805 39.3156L39.1384 38.7735C40.933 36.8107 42.3038 34.4241 43.0765 31.7385L41.7679 31.4207C41.0576 33.8571 39.8176 36.0256 38.1912 37.8201L37.3001 36.9291C38.8206 35.1594 39.9235 33.0283 40.4656 30.6792L44.4847 31.5391C45.2948 31.7136 46.0488 31.0967 46.0488 30.2741V23.3388C46.0488 22.5163 45.2886 21.8994 44.4847 22.0739L40.4656 22.9338C39.8799 20.3852 38.6336 18.0983 36.9138 16.2477L41.6994 11.4621C41.9175 11.6366 42.1854 11.7425 42.4845 11.7425C42.7836 11.7425 43.0703 11.6303 43.2884 11.4496C45.7435 14.1976 47.5692 17.5687 48.4852 21.351C48.4977 21.4134 48.56 21.4507 48.6223 21.432C48.6846 21.4196 48.722 21.3573 48.7033 21.295C47.7748 17.469 45.9304 14.0667 43.4441 11.2876C43.6311 11.0695 43.7495 10.7829 43.7495 10.4713C43.7495 9.77344 43.1824 9.2064 42.4845 9.2064C42.173 9.2064 41.8925 9.32479 41.6745 9.5055C37.5182 5.773 32.041 3.55469 26.1089 3.55469C13.6527 3.55469 3.45841 13.3938 2.87891 25.7129C2.90383 25.7129 2.93499 25.7067 2.95992 25.7067C3.00976 25.7067 3.05338 25.7129 3.097 25.7191C3.67027 13.5246 13.7648 3.77901 26.1027 3.77901C31.9725 3.77901 37.3936 5.9724 41.5062 9.66751C41.3255 9.8856 41.2071 10.166 41.2071 10.4713C41.2071 10.7081 41.2757 10.9324 41.3941 11.1194L36.596 15.9174C33.9291 13.2193 30.2339 11.5431 26.14 11.5431C18.0208 11.5431 11.4406 18.1233 11.4406 26.2425H15.9458C15.9458 20.622 20.5195 16.0483 26.14 16.0483C28.9815 16.0483 31.555 17.2197 33.4056 19.1016L31.8167 20.6905C30.3274 19.301 28.3334 18.4473 26.14 18.4473C21.5352 18.4473 17.7902 22.1923 17.7902 26.7971C17.7902 28.9905 18.6439 30.9845 20.0335 32.4738L18.4569 34.0503C16.8929 32.2557 15.9458 29.919 15.9458 27.3642H11.4406C11.4406 31.1714 12.8862 34.636 15.2603 37.2469L10.3439 42.1633C10.1507 42.0511 9.93264 41.9764 9.69586 41.9764C9.43415 41.9764 9.19114 42.0574 8.99174 42.1882C5.54587 38.356 3.35871 33.3711 3.10323 27.8876C3.05961 27.8876 3.00976 27.9 2.96614 27.9C2.93499 27.9 2.91007 27.9 2.88514 27.8938C3.14685 33.4271 5.34647 38.462 8.82349 42.3315C8.58671 42.5621 8.43092 42.8861 8.43092 43.2413C8.43092 43.9392 8.99796 44.5062 9.69586 44.5062C10.0573 44.5062 10.3813 44.3567 10.6118 44.1137C14.7307 47.8026 20.1581 50.0458 26.1089 50.0458C36.8515 50.0458 46.1423 42.7677 48.697 32.3491C48.7095 32.2868 48.6721 32.2307 48.616 32.2121L48.6223 32.2183ZM27.4611 48.7435H26.7881V46.0017H27.4611V48.7435ZM28.7011 48.6001L28.4643 45.8646L29.131 45.8086L29.3678 48.5441L28.7011 48.6001ZM30.5891 48.2948L30.1156 45.5905L30.7761 45.4721L31.2496 48.1764L30.5891 48.2948ZM32.446 47.8212L31.7357 45.173L32.3837 44.9985L33.0941 47.6468L32.446 47.8212ZM34.2531 47.1919L33.3122 44.6122L33.9415 44.3816L34.8824 46.9613L34.2531 47.1919ZM35.9978 46.4068L34.8388 43.9205L35.4495 43.6339L36.6085 46.1201L35.9978 46.4068ZM37.6678 45.4721L36.2969 43.098L36.8764 42.7615L38.2473 45.1356L37.6678 45.4721ZM39.2505 44.3941L37.674 42.1446L38.2224 41.7583L39.7989 44.0077L39.2505 44.3941ZM44.4474 32.5859L47.0832 33.3461L46.8962 33.9942L44.2604 33.234L44.4474 32.5859ZM44.0423 33.882L46.5784 34.9289L46.323 35.552L43.7868 34.5051L44.0423 33.882ZM43.3818 35.3588L45.8307 36.5988L45.5254 37.197L43.0765 35.957L43.3818 35.3588ZM42.6091 36.7671L44.8586 38.3436L44.4723 38.8919L42.2228 37.3154L42.6091 36.7671ZM41.6807 38.1192L43.7806 39.8827L43.3507 40.3999L41.2507 38.6364L41.6807 38.1192ZM40.6339 39.434L42.5718 41.3719L42.0982 41.8455L40.5528 40.3002L40.1603 39.9076L40.2164 39.8515L40.6339 39.434ZM39.4811 40.6491L40.0045 41.2722L41.2445 42.749L40.7273 43.179L38.9639 41.0791L39.1633 40.9108L39.4811 40.6429V40.6491ZM43.0578 24.5913C44.2791 24.5913 45.2699 25.582 45.2699 26.8034C45.2699 28.0247 44.2791 29.0154 43.0578 29.0154C41.8365 29.0154 40.8457 28.0247 40.8457 26.8034C40.8457 25.582 41.8365 24.5913 43.0578 24.5913ZM26.1151 15.1074C25.4172 15.1074 24.8502 14.5403 24.8502 13.8424C24.8502 13.1445 25.4172 12.5775 26.1151 12.5775C26.813 12.5775 27.38 13.1445 27.38 13.8424C27.38 14.5403 26.813 15.1074 26.1151 15.1074ZM26.1151 41.0604C25.4172 41.0604 24.8502 40.4933 24.8502 39.7954C24.8502 39.0975 25.4172 38.5305 26.1151 38.5305C26.813 38.5305 27.38 39.0975 27.38 39.7954C27.38 40.4933 26.813 41.0604 26.1151 41.0604ZM33.7234 19.4318C34.8388 20.6718 35.6551 22.1923 36.0601 23.8685L34.1098 24.2859C33.7172 23.0397 33.0318 21.9243 32.1469 21.0083L33.7234 19.4318ZM18.2451 26.8034C18.2451 22.4477 21.7907 18.9022 26.1463 18.9022C29.6544 18.9022 32.6392 21.2077 33.6674 24.3794L31.2372 24.8966C30.6764 25.015 30.2651 25.4948 30.2215 26.0556H37.6553C38.0666 26.0556 38.4031 26.3921 38.4031 26.8034C38.4031 27.2146 38.0666 27.5511 37.6553 27.5511H30.2215C30.2651 28.1181 30.6764 28.5917 31.2372 28.7101L33.6674 29.2273C32.6392 32.399 29.6607 34.7045 26.1463 34.7045C21.7907 34.7045 18.2451 31.159 18.2451 26.8034ZM20.3512 32.804C21.853 34.2559 23.8968 35.1594 26.1463 35.1594C29.8725 35.1594 33.038 32.7043 34.1098 29.327L36.0601 29.7445C34.9884 34.2247 30.9505 37.5647 26.1525 37.5647C23.2488 37.5647 20.6316 36.3433 18.7747 34.393L20.3575 32.8102L20.3512 32.804Z" fill="white"/>
<path d="M49.2639 24.5781C48.0425 24.5781 47.0518 25.5689 47.0518 26.7902C47.0518 28.0115 48.0425 29.0023 49.2639 29.0023C50.4852 29.0023 51.4759 28.0115 51.4759 26.7902C51.4759 25.5689 50.4852 24.5781 49.2639 24.5781ZM49.2639 27.8994C48.6532 27.8994 48.1547 27.4009 48.1547 26.7902C48.1547 26.1795 48.6532 25.6811 49.2639 25.6811C49.8745 25.6811 50.373 26.1733 50.373 26.7902C50.373 27.4071 49.8745 27.8994 49.2639 27.8994Z" fill="white"/>
<path d="M43.0891 27.8997C43.6997 27.8997 44.1982 27.4012 44.1982 26.7906C44.1982 26.1799 43.6997 25.6814 43.0891 25.6814C42.4784 25.6814 41.9799 26.1737 41.9799 26.7906C41.9799 27.4075 42.4784 27.8997 43.0891 27.8997Z" fill="white"/>
<path d="M26.1589 29.0091C27.1185 29.0091 27.9285 28.3922 28.2339 27.5448H26.9315C26.7321 27.7629 26.4393 27.9062 26.1215 27.9062C25.5108 27.9062 25.0123 27.4077 25.0123 26.797C25.0123 26.1864 25.5108 25.6879 26.1215 25.6879C26.4455 25.6879 26.7321 25.825 26.9315 26.0493H28.2339C27.9285 25.1956 27.1185 24.585 26.1589 24.585C24.9375 24.585 23.9468 25.5757 23.9468 26.797C23.9468 28.0184 24.9375 29.0091 26.1589 29.0091Z" fill="white"/>
<path d="M52.174 28.1491C52.0806 28.1491 52.0058 28.2176 51.9996 28.3111C51.9996 28.4045 52.0681 28.4793 52.1554 28.4855H52.1616C52.2488 28.4855 52.3298 28.4108 52.3298 28.3235C52.3298 28.2301 52.2613 28.1491 52.1678 28.1428L52.174 28.1491Z" fill="white"/>
<path d="M8.38101 45.9017C8.3187 45.9702 8.32494 46.0762 8.38725 46.1385C8.41841 46.1696 8.46202 46.1821 8.49941 46.1821C8.54303 46.1821 8.58664 46.1634 8.62403 46.126C8.68634 46.0575 8.68011 45.9516 8.6178 45.8892C8.54926 45.8269 8.44332 45.8332 8.38101 45.8955V45.9017Z" fill="white"/>
<path d="M6.5242 43.9697C6.45566 44.032 6.44943 44.1379 6.50551 44.2065C6.54289 44.2439 6.58651 44.2626 6.63013 44.2626C6.66752 44.2626 6.71114 44.2501 6.7423 44.2252C6.81707 44.1629 6.81707 44.0569 6.76099 43.9822C6.69868 43.9136 6.59274 43.9074 6.5242 43.9697Z" fill="white"/>
<path d="M4.8792 41.8577C4.80442 41.9138 4.78573 42.0197 4.84181 42.0945C4.87297 42.1381 4.92905 42.163 4.9789 42.163C5.01629 42.163 5.05368 42.1568 5.0786 42.1319C5.15338 42.0758 5.17207 41.9761 5.12222 41.9013C5.06613 41.8265 4.96021 41.8078 4.89166 41.8577H4.8792Z" fill="white"/>
<path d="M3.45204 39.5964C3.37104 39.6401 3.33988 39.746 3.38973 39.827C3.42088 39.8831 3.47696 39.9142 3.53304 39.9142C3.5642 39.9142 3.58912 39.9142 3.62028 39.8893C3.70129 39.8457 3.72621 39.7398 3.6826 39.6587C3.63898 39.5777 3.53305 39.5528 3.45204 39.5964Z" fill="white"/>
<path d="M51.9122 30.8159C51.825 30.8035 51.7377 30.8658 51.7191 30.953C51.7066 31.0465 51.7689 31.1337 51.8624 31.1462C51.8624 31.1462 51.8748 31.1462 51.8873 31.1462C51.9683 31.1462 52.0431 31.0839 52.0555 31.0029C52.0742 30.9094 52.0119 30.8222 51.9184 30.8097L51.9122 30.8159Z" fill="white"/>
<path d="M35.8981 50.8933C35.8108 50.9307 35.7734 51.0242 35.8108 51.1114C35.8357 51.1737 35.8981 51.2174 35.9666 51.2174C35.9853 51.2174 36.004 51.2173 36.0289 51.2049C36.1161 51.1737 36.1535 51.074 36.1161 50.9868C36.085 50.8996 35.9853 50.8559 35.9043 50.8933H35.8981Z" fill="white"/>
<path d="M40.5836 48.4007C40.5089 48.4568 40.4902 48.5565 40.54 48.6312C40.5774 48.6811 40.6273 48.706 40.6771 48.706C40.7083 48.706 40.7457 48.6998 40.7706 48.6749C40.8516 48.625 40.8703 48.5191 40.8204 48.4443C40.7643 48.3695 40.6646 48.3446 40.5836 48.4007Z" fill="white"/>
<path d="M10.4248 47.6343C10.3687 47.709 10.3874 47.815 10.4559 47.8711C10.4871 47.896 10.5245 47.9022 10.5619 47.9022C10.6117 47.9022 10.6616 47.8773 10.699 47.8337C10.755 47.7589 10.7363 47.653 10.6616 47.6031C10.5868 47.547 10.4809 47.5657 10.431 47.6343H10.4248Z" fill="white"/>
<path d="M38.3033 49.765C38.2223 49.8086 38.1911 49.9146 38.2347 49.9956C38.2659 50.0516 38.3219 50.0828 38.3843 50.0828C38.4092 50.0828 38.4403 50.0828 38.4653 50.0641C38.5463 50.0205 38.5774 49.9146 38.5338 49.8335C38.4902 49.7525 38.3905 49.7214 38.3033 49.7588V49.765Z" fill="white"/>
<path d="M42.7214 46.8054C42.6466 46.8615 42.6341 46.9736 42.6965 47.0422C42.7276 47.0796 42.7775 47.0983 42.8211 47.0983C42.8647 47.0983 42.9021 47.0858 42.9332 47.0609C43.008 46.9986 43.0142 46.8926 42.9519 46.8241C42.8959 46.7556 42.7837 46.7431 42.7214 46.7992V46.8054Z" fill="white"/>
<path d="M48.2109 40.792C48.1361 40.7359 48.0302 40.7608 47.9804 40.8418C47.9243 40.9166 47.9554 41.0225 48.0302 41.0724C48.0551 41.0911 48.0863 41.0973 48.1174 41.0973C48.1735 41.0973 48.2296 41.0724 48.2608 41.0163C48.3106 40.9415 48.2857 40.8356 48.2047 40.7857L48.2109 40.792Z" fill="white"/>
<path d="M44.6717 44.9977C44.6031 45.0662 44.6093 45.1722 44.6717 45.2345C44.709 45.2656 44.7464 45.2843 44.7901 45.2843C44.8274 45.2843 44.8773 45.2656 44.9084 45.2345C44.977 45.1659 44.977 45.06 44.9084 44.9977C44.8399 44.9292 44.734 44.9292 44.6717 44.9977Z" fill="white"/>
<path d="M46.4289 43.0046C46.3728 43.0731 46.3853 43.1853 46.4601 43.2414C46.485 43.2663 46.5286 43.2788 46.566 43.2788C46.6158 43.2788 46.6657 43.2538 46.6968 43.2164C46.7529 43.1417 46.7405 43.0357 46.6719 42.9797C46.5971 42.9236 46.4912 42.936 46.4351 43.0046H46.4289Z" fill="white"/>
<path d="M33.3869 51.7658C33.2996 51.7907 33.2498 51.8842 33.2747 51.9777C33.2997 52.0524 33.362 52.096 33.4367 52.096C33.4492 52.096 33.4679 52.096 33.4803 52.0898C33.5676 52.0649 33.6237 51.9714 33.5987 51.8842C33.5738 51.7969 33.4804 51.7409 33.3931 51.7658H33.3869Z" fill="white"/>
<path d="M15.2104 50.3389C15.1232 50.3015 15.0297 50.3389 14.9861 50.4261C14.9487 50.5071 14.9861 50.6068 15.0671 50.6442C15.092 50.6566 15.117 50.6629 15.1419 50.6629C15.2042 50.6629 15.2603 50.6255 15.2914 50.5632C15.3288 50.4759 15.2914 50.3825 15.2104 50.3389Z" fill="white"/>
<path d="M30.7881 52.3691C30.7009 52.3878 30.6385 52.4751 30.651 52.5685C30.6635 52.6495 30.7383 52.7056 30.8193 52.7056C30.8255 52.7056 30.8379 52.7056 30.8504 52.7056C30.9376 52.6932 31 52.5997 30.9875 52.5125C30.9688 52.419 30.8816 52.3629 30.7881 52.3754V52.3691Z" fill="white"/>
<path d="M12.8612 49.0862C12.7802 49.0364 12.6805 49.0613 12.6306 49.1423C12.5808 49.2171 12.6057 49.323 12.6867 49.3728C12.7116 49.3915 12.7428 49.3978 12.774 49.3978C12.83 49.3978 12.8861 49.3728 12.9173 49.3168C12.9671 49.242 12.9422 49.1361 12.8612 49.0862Z" fill="white"/>
<path d="M17.6779 51.3476C17.5907 51.3165 17.4972 51.3601 17.4661 51.4536C17.4349 51.5408 17.4786 51.6343 17.572 51.6717C17.5907 51.6717 17.6094 51.6779 17.6281 51.6779C17.7029 51.6779 17.7652 51.6343 17.7901 51.5657C17.815 51.4785 17.7714 51.3788 17.6842 51.3539L17.6779 51.3476Z" fill="white"/>
<path d="M25.492 52.7746C25.3985 52.7746 25.3237 52.8494 25.3237 52.9366C25.3237 53.0301 25.3923 53.1049 25.4857 53.1111C25.573 53.1111 25.654 53.0363 25.654 52.9428C25.654 52.8556 25.5792 52.7746 25.4857 52.7746H25.492Z" fill="white"/>
<path d="M20.2269 52.0892C20.1397 52.0643 20.0462 52.1204 20.0275 52.2139C20.0026 52.3011 20.0649 52.3946 20.1521 52.4133C20.1646 52.4133 20.1771 52.4133 20.1895 52.4133C20.2643 52.4133 20.3328 52.3572 20.3515 52.2824C20.3765 52.1952 20.3204 52.1017 20.2269 52.083V52.0892Z" fill="white"/>
<path d="M22.8436 52.5629C22.7564 52.5504 22.6691 52.619 22.6567 52.7062C22.6504 52.7997 22.7128 52.8869 22.8062 52.8931C22.8062 52.8931 22.8187 52.8931 22.8249 52.8931C22.9122 52.8931 22.9807 52.8308 22.9932 52.7436C22.9994 52.6501 22.9371 52.5691 22.8436 52.5566V52.5629Z" fill="white"/>
<path d="M28.1591 52.7068C28.0656 52.7131 27.9909 52.7941 28.0033 52.8875C28.0033 52.9748 28.0843 53.0371 28.1716 53.0371H28.184C28.2775 53.0308 28.346 52.9498 28.3398 52.8564C28.3336 52.7629 28.2526 52.6944 28.1591 52.7006V52.7068Z" fill="white"/>
<path d="M38.3967 4.13999C38.3967 4.13999 38.4528 4.15868 38.4715 4.15868C38.5338 4.15868 38.5899 4.12752 38.621 4.07144C38.6646 3.98421 38.6335 3.88451 38.5525 3.84089C38.4715 3.79727 38.3718 3.82843 38.3282 3.90943C38.2845 3.99044 38.3157 4.09014 38.3967 4.13999Z" fill="white"/>
<path d="M33.4805 2.1213C33.4805 2.1213 33.5117 2.12753 33.5241 2.12753C33.5989 2.12753 33.6612 2.07768 33.6861 2.00914C33.7111 1.9219 33.6612 1.82843 33.574 1.79728C33.4867 1.77235 33.3933 1.8222 33.3621 1.91567C33.3372 2.00291 33.387 2.09638 33.4805 2.1213Z" fill="white"/>
<path d="M35.9916 3.0061C35.9916 3.0061 36.0352 3.01233 36.0539 3.01233C36.1225 3.01233 36.1848 2.97494 36.2097 2.9064C36.2471 2.81916 36.2097 2.7257 36.1225 2.68831C36.0353 2.65092 35.9355 2.69454 35.9044 2.78178C35.867 2.86901 35.9044 2.96248 35.9916 2.99987V3.0061Z" fill="white"/>
<path d="M2.26818 37.1905C2.18094 37.2279 2.14355 37.3276 2.18094 37.4148C2.20587 37.4709 2.26818 37.5145 2.33049 37.5145C2.35542 37.5145 2.37411 37.5145 2.39904 37.5021C2.48627 37.4647 2.52366 37.365 2.48627 37.2777C2.44889 37.1905 2.34918 37.1593 2.26818 37.1905Z" fill="white"/>
<path d="M30.8882 1.51049H30.9194C31.0004 1.51049 31.0689 1.45441 31.0876 1.3734C31.1063 1.27993 31.044 1.19269 30.9505 1.174C30.8633 1.15531 30.7698 1.21762 30.7511 1.31109C30.7387 1.39833 30.7947 1.49179 30.8882 1.51049Z" fill="white"/>
<path d="M22.9245 1.2868C22.9245 1.2868 22.937 1.2868 22.9432 1.2868C23.0367 1.28057 23.099 1.19333 23.0928 1.09986C23.0803 1.01263 22.9993 0.944083 22.9058 0.956546C22.8124 0.962777 22.7501 1.05001 22.7563 1.14348C22.7688 1.23072 22.8435 1.29303 22.9245 1.29303V1.2868Z" fill="white"/>
<path d="M20.2828 1.7534C20.2828 1.7534 20.3077 1.7534 20.3202 1.7534C20.4074 1.73471 20.4697 1.64747 20.4448 1.554C20.4199 1.46676 20.3326 1.41068 20.2454 1.42938C20.1582 1.4543 20.0958 1.54154 20.1208 1.62878C20.1395 1.70355 20.208 1.75963 20.2828 1.75963V1.7534Z" fill="white"/>
<path d="M42.8956 7.16152C42.9455 7.16152 42.9953 7.1366 43.0265 7.09921C43.0826 7.02444 43.0763 6.92474 43.0078 6.86866C42.933 6.80635 42.8271 6.81258 42.771 6.88735C42.7087 6.96213 42.7149 7.06806 42.7897 7.12414C42.8209 7.14906 42.8645 7.16152 42.8956 7.16152Z" fill="white"/>
<path d="M28.2521 1.16211C28.2521 1.16211 28.2583 1.16211 28.2646 1.16211C28.3518 1.16211 28.4266 1.09357 28.4328 1.00633C28.439 0.912861 28.3705 0.831855 28.2832 0.825624C28.1898 0.819393 28.1088 0.881705 28.1025 0.975173C28.1025 1.06864 28.1649 1.14965 28.2583 1.15588L28.2521 1.16211Z" fill="white"/>
<path d="M25.5917 1.08682C25.6852 1.08682 25.76 1.00582 25.76 0.912349C25.76 0.825112 25.6789 0.744106 25.5917 0.750338C25.4982 0.750338 25.4235 0.825112 25.4235 0.91858C25.4235 1.01205 25.4982 1.08682 25.5917 1.08682Z" fill="white"/>
<path d="M49.5195 38.4491C49.4323 38.4117 49.3388 38.4491 49.2889 38.5239C49.2516 38.6049 49.2827 38.7046 49.3637 38.7482C49.3887 38.7607 49.4136 38.7669 49.4385 38.7669C49.4946 38.7669 49.5569 38.7358 49.5881 38.6797C49.6317 38.5924 49.5943 38.499 49.5133 38.4491H49.5195Z" fill="white"/>
<path d="M50.5602 17.9738C50.5602 17.9738 50.5976 17.9738 50.6163 17.9613C50.7035 17.9302 50.7471 17.8305 50.716 17.7494C50.6848 17.6622 50.5851 17.6186 50.4979 17.6497C50.4106 17.6809 50.367 17.7806 50.3982 17.8678C50.4231 17.9364 50.4854 17.98 50.5539 17.98L50.5602 17.9738Z" fill="white"/>
<path d="M51.9062 23.1458C51.9062 23.1458 51.9249 23.1458 51.9311 23.1458C52.0183 23.1334 52.0806 23.0462 52.0682 22.9527C52.0557 22.8654 51.9685 22.7969 51.875 22.8156C51.7878 22.8281 51.7255 22.9153 51.7379 23.0088C51.7504 23.0898 51.8251 23.1521 51.9062 23.1521V23.1458Z" fill="white"/>
<path d="M52.0056 25.6504C52.0056 25.7439 52.0804 25.8124 52.1739 25.8124C52.2673 25.8124 52.3421 25.7252 52.3359 25.638C52.3359 25.5445 52.2486 25.4697 52.1614 25.4759C52.0679 25.4759 51.9932 25.5632 51.9994 25.6504H52.0056Z" fill="white"/>
<path d="M48.1738 13.1819C48.2049 13.1819 48.2361 13.1757 48.261 13.157C48.342 13.1072 48.3669 13.0075 48.3171 12.9265C48.2672 12.8517 48.1613 12.8268 48.0865 12.8766C48.0117 12.9265 47.9868 13.0262 48.0304 13.1072C48.0616 13.157 48.1177 13.1819 48.1738 13.1819Z" fill="white"/>
<path d="M49.4885 15.512C49.4885 15.512 49.5383 15.512 49.5632 15.4995C49.6505 15.4559 49.6816 15.3562 49.638 15.269C49.6006 15.188 49.5009 15.1506 49.4137 15.1942C49.3264 15.2378 49.2953 15.3313 49.3389 15.4185C49.3701 15.4746 49.4261 15.5058 49.4885 15.5058V15.512Z" fill="white"/>
<path d="M46.622 10.994C46.6594 10.994 46.6968 10.9878 46.728 10.9567C46.7965 10.9006 46.8152 10.7947 46.7529 10.7261C46.6968 10.6513 46.5909 10.6389 46.5161 10.7012C46.4476 10.7573 46.4289 10.8632 46.4912 10.9317C46.5224 10.9754 46.5722 10.994 46.622 10.994Z" fill="white"/>
<path d="M44.7401 8.93196C44.7712 8.96312 44.8148 8.98181 44.8585 8.98181C44.8958 8.98181 44.9457 8.96312 44.9769 8.93196C45.0454 8.86965 45.0454 8.76372 44.9769 8.69518C44.9083 8.62663 44.8086 8.62663 44.7401 8.69518C44.6715 8.76372 44.6715 8.86965 44.7401 8.93196Z" fill="white"/>
<path d="M50.5849 35.994C50.4976 35.9566 50.3979 36.0002 50.3668 36.0874C50.3356 36.1747 50.373 36.2744 50.4665 36.3055C50.4852 36.3118 50.5039 36.3118 50.5226 36.3118C50.5911 36.3118 50.6597 36.2681 50.6784 36.2058C50.7157 36.1186 50.6721 36.0251 50.5849 35.9877V35.994Z" fill="white"/>
<path d="M40.6714 5.51782C40.6714 5.51782 40.7274 5.54897 40.7648 5.54897C40.8209 5.54897 40.8707 5.52405 40.9019 5.4742C40.9518 5.39942 40.9331 5.29349 40.8583 5.24364C40.7773 5.19379 40.6776 5.21249 40.6277 5.28726C40.5716 5.36204 40.5966 5.46797 40.6714 5.51782Z" fill="white"/>
<path d="M0.286759 29.4321C0.193291 29.4384 0.124744 29.5256 0.137207 29.6128C0.143438 29.7001 0.218215 29.7624 0.305452 29.7624H0.324145C0.417613 29.7562 0.486151 29.6751 0.473688 29.5817C0.461226 29.4882 0.380224 29.4197 0.292987 29.4321H0.286759Z" fill="white"/>
<path d="M0.336977 23.9926C0.243228 23.9801 0.155728 24.0489 0.149478 24.1426C0.143228 24.2364 0.205721 24.3176 0.29947 24.3239C0.29947 24.3239 0.305722 24.3239 0.311972 24.3239C0.399471 24.3239 0.474473 24.2551 0.480723 24.1739C0.486973 24.0864 0.42447 23.9989 0.330721 23.9926H0.336977Z" fill="white"/>
<path d="M0.336491 26.9271C0.336491 26.9271 0.336491 26.8897 0.336491 26.8773C0.336491 26.8586 0.336491 26.8461 0.336491 26.8274C0.336491 26.734 0.261714 26.6592 0.168246 26.6592C0.0747773 26.6592 0 26.734 0 26.8274C0 26.8523 -3.42277e-06 26.8648 0.00622779 26.8835C0.00622779 26.9022 0.00622779 26.9147 0.00622779 26.9334C0.00622779 27.0268 0.0810051 27.1016 0.174473 27.1016C0.267942 27.1016 0.342719 27.0268 0.342719 26.9334L0.336491 26.9271Z" fill="white"/>
<path d="M2.44286 16.2722C2.35563 16.2349 2.26216 16.2722 2.21854 16.3595C2.18115 16.4467 2.21854 16.5402 2.30577 16.5838C2.32447 16.59 2.34939 16.5963 2.37432 16.5963C2.43663 16.5963 2.49895 16.5589 2.52387 16.4903C2.56126 16.4093 2.52387 16.3096 2.43663 16.2722H2.44286Z" fill="white"/>
<path d="M1.33959 34.6793C1.25235 34.7105 1.2025 34.8039 1.22742 34.8912C1.25235 34.9659 1.31466 35.0096 1.38943 35.0096C1.40813 35.0096 1.42683 35.0096 1.44552 35.0033C1.53276 34.9784 1.58261 34.8849 1.55145 34.7915C1.52029 34.7042 1.43306 34.6544 1.33959 34.6793Z" fill="white"/>
<path d="M1.47141 18.7648C1.38391 18.7398 1.29016 18.7835 1.25891 18.871C1.23391 18.9585 1.28391 19.0523 1.36516 19.0835C1.38391 19.0898 1.40266 19.0898 1.42141 19.0898C1.4964 19.0898 1.5589 19.046 1.57765 18.971C1.60265 18.8835 1.55266 18.7898 1.46516 18.7585L1.47141 18.7648Z" fill="white"/>
<path d="M3.50184 14.1782C3.50184 14.1782 3.55793 14.2031 3.58285 14.2031C3.63893 14.2031 3.70125 14.172 3.7324 14.1159C3.77602 14.0349 3.75109 13.9352 3.67009 13.8853C3.58908 13.8355 3.48939 13.8666 3.43954 13.9476C3.38969 14.0224 3.42084 14.1284 3.50184 14.1782Z" fill="white"/>
<path d="M0.679171 32.0809C0.585703 32.1059 0.529627 32.1931 0.548321 32.2803C0.560783 32.3614 0.635554 32.4174 0.710329 32.4174C0.722791 32.4174 0.735252 32.4174 0.747715 32.4174C0.834952 32.3987 0.897268 32.3115 0.878574 32.218C0.859881 32.1246 0.772639 32.0685 0.679171 32.0809Z" fill="white"/>
<path d="M0.766391 21.3443C0.672923 21.3256 0.585691 21.3817 0.566998 21.4752C0.548304 21.5687 0.604379 21.6559 0.697848 21.6746H0.735243C0.810018 21.6746 0.884785 21.6185 0.903479 21.5437C0.922173 21.4503 0.866097 21.363 0.772629 21.3443H0.766391Z" fill="white"/>
<path d="M17.7091 2.48862C17.7091 2.48862 17.7464 2.48862 17.7651 2.48239C17.8524 2.45123 17.9022 2.35777 17.8711 2.27053C17.8399 2.18329 17.7402 2.13344 17.6592 2.1646C17.572 2.19575 17.5221 2.28922 17.5533 2.38269C17.5782 2.45123 17.6405 2.49485 17.7091 2.49485V2.48862Z" fill="white"/>
<path d="M12.8612 4.74445C12.8612 4.74445 12.9173 4.74445 12.9484 4.71953C13.0295 4.66968 13.0544 4.56998 13.0045 4.48897C12.9547 4.40797 12.855 4.38304 12.774 4.43289C12.693 4.47651 12.6681 4.58244 12.7117 4.66345C12.7428 4.71953 12.7989 4.74445 12.8612 4.74445Z" fill="white"/>
<path d="M10.6368 6.23368C10.6742 6.23368 10.7116 6.22121 10.7365 6.19629C10.8113 6.14021 10.8238 6.04051 10.7677 5.96573C10.7116 5.89096 10.6057 5.8785 10.5371 5.92835C10.4624 5.98443 10.4499 6.09036 10.4998 6.16513C10.5309 6.20875 10.587 6.23368 10.6368 6.23368Z" fill="white"/>
<path d="M51.3825 33.44C51.2953 33.4151 51.2018 33.4649 51.1831 33.5584C51.1582 33.6456 51.2081 33.7391 51.3015 33.764C51.314 33.764 51.3327 33.7702 51.3452 33.7702C51.4137 33.7702 51.4885 33.7142 51.5072 33.6456C51.5321 33.5521 51.476 33.4649 51.3888 33.44H51.3825Z" fill="white"/>
<path d="M5.0287 11.948C5.08478 11.948 5.13463 11.9231 5.16579 11.8794C5.22187 11.8047 5.2094 11.6987 5.12839 11.6489C5.05362 11.5928 4.94769 11.6115 4.89784 11.6863C4.84176 11.761 4.86045 11.867 4.93523 11.9168C4.96638 11.9417 4.99754 11.948 5.03493 11.948H5.0287Z" fill="white"/>
<path d="M15.2291 3.49287C15.2291 3.49287 15.2789 3.49287 15.3038 3.47418C15.3911 3.43679 15.4222 3.33709 15.3849 3.24985C15.3412 3.16885 15.2478 3.13146 15.1605 3.16885C15.0733 3.20623 15.0421 3.30593 15.0795 3.39317C15.1044 3.45548 15.1668 3.49287 15.2291 3.49287Z" fill="white"/>
<path d="M8.5745 7.9405C8.61189 7.9405 8.65551 7.92804 8.69289 7.90312C8.76144 7.8408 8.76767 7.73487 8.69913 7.6601C8.63682 7.59155 8.53089 7.58532 8.46234 7.65387C8.3938 7.71618 8.38757 7.82211 8.45611 7.89065C8.48727 7.92804 8.53088 7.94673 8.5745 7.94673V7.9405Z" fill="white"/>
<path d="M6.69847 9.85433C6.74209 9.85433 6.78571 9.83563 6.8231 9.79825C6.88541 9.7297 6.87918 9.62377 6.81064 9.56146C6.73586 9.50538 6.62993 9.50538 6.57385 9.58015C6.51154 9.6487 6.51777 9.75463 6.58632 9.81694C6.61747 9.84186 6.66109 9.85433 6.69847 9.85433Z" fill="white"/>
<path d="M51.3265 20.1925C51.2393 20.2174 51.1832 20.3046 51.2081 20.3919C51.233 20.4666 51.2953 20.5165 51.3701 20.5165C51.3826 20.5165 51.4013 20.5165 51.4137 20.5165C51.501 20.4916 51.557 20.3981 51.5321 20.3109C51.5072 20.2236 51.4137 20.1675 51.3265 20.1925Z" fill="white"/>
</svg>
